<svg xmlns="http://www.w3.org/2000/svg" width="903.11mm" height="1920" viewBox="0 0 2560 1440"><defs><pattern id="a" width="565" height="700" patternUnits="userSpaceOnUse" viewBox="0 0 565 700"><path fill="none" d="M0 0h565v700H0z"/><path fill="#282828" d="M0 0h565v700H0z"/><path d="M81.79 662.5a262.5 262.5 0 01-50.69-91.27 263.66 263.66 0 013.65-170.35 263.4 263.4 0 0127.53-54.73A282.59 282.59 0 0186.41 315c3.08-3.33 5.5-5.83 7.11-7.53L96 304.9s.58-.61 1.65-1.77l2-2.1 1.28-1.33 1.34-1.59 3.18-3.68q1.59-2.12 3.49-4.52c.65-.78 1.22-1.67 1.84-2.56l1.9-2.73c.69-.91 1.29-1.91 1.92-2.94s1.28-2.05 2-3.1a138.58 138.58 0 0013.73-31.19 158 158 0 004.14-18.88 160.34 160.34 0 001.47-19.93 160.65 160.65 0 00-1.47-19.94 157.85 157.85 0 00-4.14-18.87 138.58 138.58 0 00-13.73-31.19c-.67-1.06-1.32-2.09-2-3.11s-1.23-2-1.92-2.93l-1.91-2.74c-.61-.88-1.18-1.77-1.83-2.55q-1.91-2.4-3.49-4.52l-3.18-3.68-1.34-1.59-1.28-1.33c-.79-.83-1.46-1.53-2-2.11L96 112.26l-1.77-1.66c-.57-.54-1.27-1.22-2.1-2l-1.33-1.28-1.61-1.32-3.68-3.17q-2.12-1.6-4.52-3.49c-.79-.66-1.67-1.22-2.56-1.84l-2.73-1.94a34.56 34.56 0 00-2.94-1.91l-3.11-2A138.29 138.29 0 0038.47 78a162.47 162.47 0 00-18.88-4.14A160.85 160.85 0 000 72.37v14.17a145.53 145.53 0 0117.54 1.31 145.32 145.32 0 0116.91 3.71 124.13 124.13 0 0127.91 12.29l2.78 1.75a30.46 30.46 0 012.63 1.71l2.44 1.69a27.4 27.4 0 012.29 1.64c1.43 1.14 2.79 2.18 4 3.13l3.3 2.85 1.43 1.2c.43.41.82.8 1.2 1.15l1.89 1.81 1.68 1.5 1.48 1.59 1.8 1.89 1.11 1.24 1.21 1.43 2.85 3.3q1.42 1.9 3.12 4c.6.7 1.09 1.5 1.65 2.29l1.71 2.45a29.76 29.76 0 011.71 2.63l1.75 2.78a123.93 123.93 0 0112.29 27.91 144.42 144.42 0 013.71 16.91 145 145 0 011.31 17.88 145 145 0 01-1.31 17.88 145.32 145.32 0 01-3.71 16.91 124.13 124.13 0 01-12.29 27.91l-1.75 2.78a29.76 29.76 0 01-1.71 2.63l-1.71 2.44a27.45 27.45 0 01-1.65 2.29q-1.69 2.16-3.12 4.06l-2.85 3.29-1.21 1.43-1.15 1.2-1.8 1.89-1.44 1.59-2.59 2.7c-1.7 1.78-4.25 4.42-7.49 7.92a296.5 296.5 0 00-25.42 32.83A278.54 278.54 0 004.88 477.8a280.58 280.58 0 0012.71 97.71A276.57 276.57 0 0071 671.7 282 282 0 0098.9 700h22.21a266.65 266.65 0 01-39.32-37.5zm-55.31-30.41a291.37 291.37 0 01-22.41-52.3Q1.84 572.73 0 565.67v44.07a303.91 303.91 0 0049.45 80.37c2.87 3.35 5.84 6.64 8.86 9.89H78.1q-9.41-9.21-17.87-19.09a291.46 291.46 0 01-33.75-48.82z" fill="#212121"/><path d="M38.63 330.52A310.07 310.07 0 0165.35 296c3.41-3.69 6.07-6.45 7.86-8.33l2.73-2.83s.45-.5 1.31-1.42l1.6-1.68 1-1.05 1.06-1.27c.75-.89 1.6-1.86 2.53-2.91s1.75-2.33 2.76-3.59a24.26 24.26 0 001.45-2l1.51-2.16a25.72 25.72 0 001.51-2.32c.49-.81 1-1.63 1.54-2.45a110 110 0 0010.86-24.64 134.32 134.32 0 003.28-14.95 133.7 133.7 0 001.16-15.82 133.39 133.39 0 00-1.16-15.82 134.32 134.32 0 00-3.28-14.95 109.77 109.77 0 00-10.86-24.64c-.53-.83-1-1.65-1.54-2.45a24.38 24.38 0 00-1.51-2.32l-1.51-2.16a24.26 24.26 0 00-1.45-2c-1-1.27-1.93-2.46-2.76-3.59s-1.78-2-2.53-2.91l-1.06-1.27-1-1.06-1.6-1.67-1.31-1.42-1.42-1.32-1.68-1.6-1-1-1.27-1.06c-.89-.75-1.86-1.61-2.92-2.53S65.28 123 64 122a22.15 22.15 0 00-2-1.45l-2.16-1.51a23.1 23.1 0 00-2.32-1.51c-.81-.5-1.63-1-2.46-1.55a109.68 109.68 0 00-24.63-10.85 130 130 0 00-14.95-3.28A134.42 134.42 0 000 100.71v14.18a119 119 0 0113.42 1 119.68 119.68 0 0113 2.85c1 .35 2 .69 3 1 .5.17 1 .29 1.5.48l1.45.57c1 .38 1.93.69 2.86 1.07s1.82.83 2.73 1.21c.45.19.91.35 1.34.57l1.28.66c.85.43 1.69.83 2.53 1.22l2.36 1.34 1.16.63.58.31.54.35c.72.47 1.42.92 2.12 1.34a19.47 19.47 0 012 1.31c.63.46 1.26.9 1.87 1.31a19.76 19.76 0 011.76 1.26c1.09.88 2.13 1.68 3.11 2.4s1.76 1.55 2.54 2.2l1.11.92.91.9 1.46 1.39 1.24 1.14 1.14 1.24 1.4 1.46.9.92.91 1.11c.65.78 1.4 1.62 2.21 2.53s1.51 2 2.39 3.12a17.92 17.92 0 011.26 1.76c.42.61.86 1.23 1.31 1.87a18.77 18.77 0 011.31 2c.43.7.87 1.41 1.34 2.13l.36.54.3.57.63 1.16c.44.78.89 1.56 1.35 2.36s.79 1.69 1.22 2.54l.66 1.27c.22.43.37.9.57 1.35.38.9.78 1.81 1.2 2.72s.69 1.91 1.08 2.87l.57 1.44c.19.49.31 1 .47 1.5.31 1 .65 2 1 3a116.87 116.87 0 012.84 13 118 118 0 011 13.76 118.18 118.18 0 01-1 13.76 116.87 116.87 0 01-2.84 13c-.36 1-.7 2-1 3-.16.5-.28 1-.47 1.5l-.57 1.45c-.39 1-.69 1.93-1.08 2.86s-.82 1.83-1.2 2.73c-.2.45-.35.91-.57 1.34l-.66 1.28c-.43.85-.84 1.69-1.22 2.53l-1.35 2.36-.63 1.16-.3.58-.36.54c-.47.72-.91 1.42-1.34 2.12a18 18 0 01-1.31 2c-.45.63-.89 1.26-1.31 1.87a17.92 17.92 0 01-1.26 1.76c-.88 1.09-1.67 2.13-2.39 3.11s-1.56 1.76-2.21 2.54l-.91 1.11-.9.91-1.4 1.46-1.14 1.24-2.85 3c-1.88 2-4.67 4.87-8.24 8.73a323.61 323.61 0 00-28 36.18A303 303 0 000 373.08v44c2.38-9.11 5.11-17.78 8.12-25.95a292.06 292.06 0 0130.51-60.61zM1.64 645.75c-.56-1-1.09-2-1.64-3.07v28.05A333.67 333.67 0 0020.89 700h18.39c-.2-.23-.41-.46-.6-.69a320 320 0 01-37.04-53.56z" fill="#212121"/><path d="M44.29 277c3.73-4 6.65-7.07 8.61-9.13l3-3.1 1-1.06 1.19-1.25.77-.78.78-1c.55-.66 1.18-1.37 1.88-2.15s1.28-1.72 2-2.64a13.86 13.86 0 001.06-1.5c.35-.52.73-1 1.12-1.58a13.51 13.51 0 001.1-1.71q.54-.88 1.14-1.8l.31-.45.25-.49c.18-.32.35-.65.53-1 .36-.67.75-1.32 1.14-2s.67-1.43 1-2.14l.56-1.08c.19-.37.32-.76.48-1.14.32-.77.66-1.54 1-2.31s.57-1.62.9-2.42l.49-1.23c.16-.41.26-.85.4-1.27.26-.86.55-1.71.86-2.57a107.29 107.29 0 002.41-11 105.08 105.08 0 00.87-11.7 105.08 105.08 0 00-.87-11.7 107.29 107.29 0 00-2.41-11c-.31-.86-.6-1.72-.86-2.57-.14-.43-.24-.86-.4-1.28s-.33-.81-.49-1.22c-.33-.81-.57-1.64-.9-2.43s-.71-1.53-1-2.3c-.16-.38-.29-.78-.48-1.14l-.56-1.08c-.36-.72-.71-1.43-1-2.14s-.78-1.34-1.14-2c-.18-.33-.35-.66-.53-1l-.25-.49-.31-.46c-.4-.6-.78-1.2-1.14-1.79a13.51 13.51 0 00-1.1-1.71c-.39-.54-.77-1.06-1.12-1.59a13.72 13.72 0 00-1.06-1.49c-.76-.92-1.43-1.81-2-2.65s-1.33-1.48-1.88-2.15c-.28-.33-.54-.65-.78-.95l-.77-.77-1.19-1.25-1-1.07-1.06-1-1.25-1.19-.78-.78-.95-.77c-.66-.55-1.38-1.19-2.15-1.88s-1.72-1.28-2.65-2a12.87 12.87 0 00-1.49-1.07c-.52-.35-1.05-.72-1.58-1.11a14.77 14.77 0 00-1.71-1.11q-.89-.54-1.8-1.14L40 140l-.49-.25-1-.53c-.66-.36-1.31-.76-2-1.15s-1.43-.66-2.14-1l-1.08-.57c-.37-.19-.76-.31-1.14-.48q-1.15-.48-2.31-1c-.79-.33-1.62-.58-2.43-.9l-1.22-.5c-.41-.16-.85-.25-1.27-.39-.86-.26-1.71-.55-2.57-.86a105.27 105.27 0 00-11-2.41 103.79 103.79 0 00-11.35-.9v14.18c3.14.08 6.25.32 9.3.7s6.17 1.22 9.07 2c.7.26 1.4.5 2.1.71.35.12.72.19 1.05.32l1 .41c.66.28 1.35.47 2 .74s1.26.58 1.89.84c.31.13.64.23.93.38l.88.47c.59.3 1.17.58 1.76.83s1.08.66 1.63.95l.81.43.4.2.37.26q.74.49 1.47.93a9.61 9.61 0 011.4.91c.43.32.87.62 1.29.91a9.33 9.33 0 011.23.87c.75.63 1.48 1.18 2.18 1.66s1.22 1.11 1.77 1.57l.79.63.64.64c.4.4.74.73 1 1l.89.8.79.89 1 1 .65.64c.2.24.41.51.63.79.45.55 1 1.13 1.56 1.76s1 1.43 1.66 2.19a8.43 8.43 0 01.88 1.22c.28.43.59.86.91 1.3a9.56 9.56 0 01.9 1.4c.3.49.61 1 .94 1.47l.26.37.2.4c.14.27.28.54.43.81.29.54.62 1.08.94 1.63s.53 1.17.83 1.76l.47.87c.16.3.25.63.39.94.25.63.53 1.26.84 1.88s.46 1.33.73 2c.14.33.28.66.41 1s.21.7.32 1c.21.7.45 1.4.71 2.11.76 2.89 1.49 5.92 2 9.06a95.87 95.87 0 01.71 9.65 95.67 95.67 0 01-.71 9.64c-.5 3.15-1.23 6.17-2 9.07-.26.7-.5 1.4-.71 2.11-.11.34-.18.71-.32 1s-.27.67-.41 1c-.27.66-.46 1.35-.73 2s-.59 1.26-.84 1.89c-.14.31-.23.64-.39.93l-.47.88c-.3.59-.57 1.17-.83 1.76s-.65 1.09-.94 1.63c-.15.27-.29.54-.43.81l-.2.4-.26.37c-.33.49-.64 1-.94 1.47a9.56 9.56 0 01-.9 1.4c-.32.43-.63.87-.91 1.3a9 9 0 01-.88 1.22c-.62.75-1.17 1.49-1.66 2.18s-1.11 1.22-1.56 1.77l-.63.79-.65.64-1 1-.79.89-3.1 3.31c-2 2.14-5.1 5.31-9 9.53a352.1 352.1 0 00-30.6 39.52C2.11 308.66 1.06 310.3 0 312v28.09c5-9.31 10.05-17.71 15-25.16A337.56 337.56 0 0144.29 277z" fill="#212121"/><path d="M32.59 248.14l3.26-3.37s.2-.26.62-.72c.21-.22.47-.5.79-.81l.51-.5.49-.63c.36-.44.77-.9 1.24-1.39a18 18 0 011.3-1.72 6.12 6.12 0 00.68-1c.22-.34.46-.68.71-1a5.92 5.92 0 00.71-1.1c.22-.38.46-.76.73-1.14l.2-.28.16-.32c.1-.21.21-.42.32-.63.23-.42.49-.83.75-1.26s.4-.92.63-1.37c.12-.23.25-.46.38-.68s.19-.49.29-.73c.2-.5.42-1 .66-1.47s.35-1 .57-1.55q.15-.39.33-.78c.11-.26.15-.55.24-.82.16-.55.35-1.09.56-1.64.58-2.27 1.16-4.64 1.55-7.1s.5-5 .57-7.59-.27-5.1-.57-7.59-1-4.83-1.55-7.11c-.21-.54-.4-1.08-.56-1.63-.09-.28-.13-.56-.24-.82s-.23-.52-.33-.78c-.22-.51-.35-1.05-.57-1.56s-.46-1-.66-1.46c-.1-.24-.17-.5-.29-.73s-.26-.45-.38-.68c-.23-.45-.44-.91-.63-1.37s-.52-.84-.75-1.26L44 183l-.16-.31-.2-.29c-.27-.38-.51-.76-.73-1.14a6.19 6.19 0 00-.71-1.09c-.25-.34-.49-.67-.71-1a6.12 6.12 0 00-.68-1 19.39 19.39 0 01-1.3-1.71c-.47-.49-.88-.95-1.24-1.39l-.49-.63-.51-.5c-.32-.31-.58-.59-.79-.82-.42-.45-.62-.71-.62-.71s-.26-.21-.72-.62c-.23-.21-.5-.47-.81-.79-.16-.16-.33-.33-.5-.52l-.63-.49c-.44-.35-.9-.77-1.39-1.24a17.84 17.84 0 01-1.71-1.29 5.94 5.94 0 00-1-.68q-.51-.33-1-.72a5.8 5.8 0 00-1.09-.7c-.38-.22-.76-.47-1.14-.73l-.28-.21-.32-.15-.63-.33c-.42-.22-.84-.48-1.26-.74s-.92-.4-1.37-.64c-.23-.12-.46-.24-.68-.37s-.49-.19-.73-.3a14.72 14.72 0 01-1.47-.66c-.5-.21-1-.34-1.55-.56q-.39-.15-.78-.33c-.26-.11-.55-.15-.82-.24-.55-.16-1.09-.35-1.64-.57-2.27-.57-4.64-1.15-7.11-1.55s-4.8-.47-7.24-.54v14.17c1.75.07 3.49.21 5.19.39s3.5.74 5.14 1.12a7.56 7.56 0 001.18.42 5.72 5.72 0 01.59.17l.55.25c.37.16.76.24 1.12.39a7.46 7.46 0 001 .48c.18.08.37.11.53.2l.48.28a7.28 7.28 0 001 .44c.3.19.59.39.89.55l.46.22.23.1.2.16a7 7 0 00.81.53 3.15 3.15 0 01.78.5c.24.19.49.36.73.52a2.83 2.83 0 01.69.48 9 9 0 001.25.93 10.13 10.13 0 001 .92c.16.13.32.24.47.35l.36.39c.23.24.44.43.61.58.34.3.54.45.54.45a6.93 6.93 0 00.44.54c.16.17.35.37.59.6l.39.36a4.76 4.76 0 00.35.47 10.11 10.11 0 00.91 1 8.45 8.45 0 00.94 1.24 3.47 3.47 0 01.48.7 8.11 8.11 0 00.52.72 3.21 3.21 0 01.5.79 7.47 7.47 0 00.53.81l.15.2.1.23.23.46c.16.3.35.59.55.89a6.55 6.55 0 00.44 1 3.77 3.77 0 00.28.48c.09.17.12.36.2.53a7 7 0 00.48 1c.15.36.23.76.39 1.12.08.19.16.37.25.56a5.08 5.08 0 01.16.59 8.16 8.16 0 00.42 1.17c.39 1.65.82 3.36 1.12 5.15s.35 3.66.42 5.53-.22 3.72-.42 5.53-.73 3.5-1.12 5.14a8.74 8.74 0 00-.42 1.18 5.69 5.69 0 01-.16.59c-.09.18-.17.37-.25.55-.16.37-.24.76-.39 1.12a7.08 7.08 0 00-.48 1.05c-.08.17-.11.36-.2.52s-.2.32-.28.48a6.65 6.65 0 00-.44 1c-.2.3-.39.59-.55.89-.08.15-.16.3-.23.46l-.1.23-.15.2a6.61 6.61 0 00-.53.81 3.41 3.41 0 01-.5.79 6.87 6.87 0 00-.52.72 3.47 3.47 0 01-.48.7 8.45 8.45 0 00-.94 1.24 11.32 11.32 0 00-.91 1c-.13.16-.25.32-.35.47l-.39.36c-.24.23-.43.44-.59.61a6.93 6.93 0 00-.44.54l-3.39 3.5c-2.22 2.32-5.53 5.76-9.74 10.33-3.59 4.09-7.9 9-12.7 15v23.25c9.05-12.43 17.2-21.85 23.23-28.72 4.09-4.44 7.27-7.74 9.4-9.97zM0 700h3c-1-1.34-2-2.68-3-4zm541.57-223.58a311.89 311.89 0 002 52.57 307.14 307.14 0 0012 55.08q4.08 12.87 9.44 25.67v-44.07a291.59 291.59 0 010-148.56v-44q-2.68 6.39-5.2 13.22a308.75 308.75 0 00-18.24 90.09z" fill="#212121"/><path d="M513.26 475a339.24 339.24 0 002.17 57.41 333.84 333.84 0 0038.79 120.13c3.37 6.13 7 12.18 10.78 18.15v-28.01a319.1 319.1 0 01-35.51-112A320.85 320.85 0 01565 340.05V312a335.17 335.17 0 00-51.74 163zM356.33 0H208.67a224.86 224.86 0 0073.83 12.68A224.86 224.86 0 00356.33 0z" fill="#212121"/><path d="M282.5 41a251.63 251.63 0 00106.21-23.66A250.39 250.39 0 00419.55 0h-27.86c-3 1.56-6 3.08-9 4.51A237.21 237.21 0 01282.5 26.85 237.24 237.24 0 01182.32 4.51c-3-1.43-6-2.95-9-4.51h-27.87a250.39 250.39 0 0030.84 17.34A251.63 251.63 0 00282.5 41z" fill="#212121"/><path d="M164.23 43A279.9 279.9 0 00282.5 69.37 279.9 279.9 0 00400.77 43a278.47 278.47 0 0051.08-31.21Q459.22 6.1 466.1 0h-22.21l-.69.55a264.24 264.24 0 01-48.46 29.61 265.64 265.64 0 01-112.24 25 265.64 265.64 0 01-112.24-25A264.24 264.24 0 01121.8.55l-.69-.55H98.9q6.9 6.07 14.25 11.78A278.47 278.47 0 00164.23 43z" fill="#212121"/><path d="M95.86 34.24a306.35 306.35 0 0056.31 34.4A308.14 308.14 0 00282.5 97.72a308.14 308.14 0 00130.33-29.08 306.35 306.35 0 0056.31-34.4A308.41 308.41 0 00506.69 0H486.9a293.72 293.72 0 01-26.41 23 292.5 292.5 0 01-53.69 32.82 294.17 294.17 0 01-124.3 27.73 294.17 294.17 0 01-124.3-27.73A292.5 292.5 0 01104.51 23 293.72 293.72 0 0178.1 0H58.31a308.41 308.41 0 0037.55 34.24z" fill="#212121"/><path d="M78.57 56.7a334.62 334.62 0 0061.54 37.6 336.71 336.71 0 00142.39 31.77A336.71 336.71 0 00424.89 94.3a334.62 334.62 0 0061.54-37.6A336.68 336.68 0 00537.1 8.51c2.4-2.8 4.72-5.64 7-8.51h-18.38a323.55 323.55 0 01-47.93 45.47 321.13 321.13 0 01-58.93 36 322.44 322.44 0 01-136.36 30.42 322.44 322.44 0 01-136.36-30.42 321.13 321.13 0 01-58.93-36A323.55 323.55 0 0139.28 0H20.89c2.29 2.87 4.61 5.71 7 8.51A336.68 336.68 0 0078.57 56.7z" fill="#212121"/><path d="M565 0v29.85h-.34c-2.94 0-5.88.13-8.81.29q-7 8-14.4 15.54A189.93 189.93 0 01564.66 44h.34v14.19h-.34a152.39 152.39 0 00-42.83 6.19l-.27.09q-8.64 7.58-17.83 14.7a362.77 362.77 0 01-41.09 27.4q-7.2 4.13-14.62 7.93l-3.3 4.28c-.72.86-1.35 1.84-2 2.82l-2.11 3c-.75 1-1.42 2.11-2.11 3.24s-1.43 2.27-2.16 3.44a152.09 152.09 0 00-15.17 34.46 175.25 175.25 0 00-4.58 20.83 174.31 174.31 0 00-1.61 22 174.15 174.15 0 001.61 22 175 175 0 004.58 20.84 152.29 152.29 0 0015.17 34.46c.73 1.17 1.45 2.32 2.16 3.44s1.36 2.23 2.11 3.24l2.11 3c.68 1 1.31 1.95 2 2.82l3.85 5q1.92 2.22 3.5 4.06l1.49 1.75 1.4 1.47 2.21 2.32 1.83 1.94 2.32 2.43c1.53 1.61 3.82 4 6.74 7.13A268 268 0 01490.89 354a239.56 239.56 0 0112.65 21.47c1-2.89 2-5.76 3-8.56 1.13-3.07 2.29-6.07 3.46-9-2.44-4.16-4.88-8.06-7.28-11.68A282.59 282.59 0 00478.59 315c-3.08-3.33-5.5-5.83-7.11-7.53L469 304.9s-.58-.61-1.65-1.77l-2-2.1-1.28-1.33-1.34-1.59-3.18-3.68q-1.59-2.12-3.49-4.52c-.65-.78-1.22-1.67-1.83-2.56s-1.26-1.79-1.91-2.73-1.29-1.91-1.92-2.94-1.28-2.05-2-3.1a138.58 138.58 0 01-13.73-31.19 158 158 0 01-4.14-18.88 160.34 160.34 0 01-1.47-19.93 160.65 160.65 0 011.47-19.94 157.85 157.85 0 014.14-18.87 138.58 138.58 0 0113.73-31.19c.67-1.06 1.32-2.09 2-3.11s1.23-2 1.92-2.93l1.91-2.74c.61-.88 1.18-1.77 1.83-2.55q1.9-2.4 3.49-4.52l3.18-3.68 1.34-1.59 1.28-1.33 2-2.11 1.32-1.41-.36-.35 1.77-1.66 2.11-2 1.33-1.27 1.59-1.35 3.68-3.17q2.12-1.6 4.52-3.49c.78-.66 1.67-1.22 2.55-1.84l2.74-1.91a34.37 34.37 0 012.93-1.91l3.11-2A138.38 138.38 0 01525.85 78a137.68 137.68 0 0138.81-5.6h.34v14.14h-.34a123.95 123.95 0 00-34.79 5A123.93 123.93 0 00502 103.85l-2.78 1.75a27.67 27.67 0 00-2.63 1.71L494.1 109c-.79.55-1.59 1-2.29 1.64q-2.15 1.71-4.05 3.13l-3.3 2.85-1.43 1.2-1.19 1.18-1.84 1.8-1.59 1.48.35.35-1.15 1.24-1.8 1.89-1.2 1.24-1.21 1.43-2.85 3.3q-1.43 1.9-3.12 4c-.6.7-1.09 1.5-1.65 2.29l-1.71 2.45a29.76 29.76 0 00-1.71 2.63l-1.75 2.78a123.93 123.93 0 00-12.29 27.91 144.42 144.42 0 00-3.71 16.91 145 145 0 00-1.31 17.88 145 145 0 001.31 17.88 145.32 145.32 0 003.71 16.91 124.13 124.13 0 0012.29 27.91l1.75 2.78a29.76 29.76 0 001.71 2.63l1.71 2.44a27.45 27.45 0 001.65 2.29q1.69 2.16 3.12 4.06l2.85 3.29 1.21 1.43 1.15 1.2 1.8 1.89 1.48 1.59 2.59 2.7c1.7 1.78 4.25 4.42 7.49 7.92a296.5 296.5 0 0125.42 32.83c.75 1.13 1.5 2.29 2.25 3.47 2.33-5.17 4.72-10.13 7.13-14.9a313.84 313.84 0 00-24.27-30.9c-3.41-3.69-6.07-6.45-7.86-8.33l-2.73-2.83s-.45-.5-1.31-1.42l-1.6-1.68-1-1.05-1.06-1.27c-.75-.89-1.6-1.86-2.53-2.91s-1.75-2.33-2.76-3.59a24.26 24.26 0 01-1.45-2l-1.51-2.16a25.72 25.72 0 01-1.51-2.32c-.49-.81-1-1.63-1.54-2.45a110 110 0 01-10.86-24.64 134.32 134.32 0 01-3.28-14.95 133.7 133.7 0 01-1.16-15.82 133.39 133.39 0 011.16-15.82 134.32 134.32 0 013.28-14.95 109.77 109.77 0 0110.86-24.64c.53-.83 1.05-1.65 1.54-2.45a24.38 24.38 0 011.51-2.32l1.51-2.16a24.26 24.26 0 011.45-2c1-1.27 1.93-2.46 2.76-3.59s1.78-2 2.53-2.91l1.06-1.27 1-1.06 1.6-1.67 1-1.06-.35-.36 1.4-1.32 1.67-1.6 1.06-1c.39-.34.82-.69 1.27-1.06.89-.75 1.86-1.61 2.91-2.53S499 123 500.29 122a23.81 23.81 0 012-1.45l2.16-1.51a21 21 0 012.32-1.51c.8-.5 1.62-1 2.45-1.55a109.77 109.77 0 0124.64-10.85 130 130 0 0115-3.28 133.39 133.39 0 0115.82-1.17h.32v14.18h-.34a95 95 0 00-26.75 3.86c-1 .35-2 .69-3 1-.5.17-1 .29-1.5.48l-1.44.57c-1 .38-1.94.69-2.87 1.07s-1.82.83-2.72 1.21c-.45.19-.92.35-1.35.57l-1.28.66c-.84.43-1.69.83-2.53 1.22l-2.36 1.34-1.16.63-.57.31-.54.35c-.72.47-1.43.92-2.13 1.34a19.32 19.32 0 00-2 1.31c-.64.46-1.26.9-1.87 1.31a19.76 19.76 0 00-1.76 1.26c-1.09.88-2.14 1.68-3.12 2.4s-1.75 1.55-2.53 2.2l-1.11.92-.92.9-1.46 1.39-1.24 1.14.36.36-.81.88-1.4 1.46-.9.92-.91 1.11c-.65.78-1.4 1.62-2.21 2.53s-1.51 2-2.39 3.12a17.92 17.92 0 00-1.26 1.76c-.42.61-.86 1.23-1.31 1.87a18.77 18.77 0 00-1.31 2c-.43.7-.87 1.41-1.34 2.13l-.36.54-.3.57-.63 1.16c-.44.78-.89 1.56-1.35 2.36s-.79 1.69-1.22 2.54l-.66 1.27c-.22.43-.37.9-.57 1.35-.38.9-.78 1.81-1.2 2.72s-.69 1.91-1.08 2.87l-.57 1.44c-.19.49-.31 1-.47 1.5-.31 1-.65 2-1 3a116.87 116.87 0 00-2.84 13 118 118 0 00-1 13.76 118.18 118.18 0 001 13.76 116.87 116.87 0 002.84 13c.36 1 .7 2 1 3 .16.5.28 1 .47 1.5l.57 1.45c.39 1 .69 1.93 1.08 2.86s.82 1.83 1.2 2.73c.2.45.35.91.57 1.34l.66 1.28c.43.85.84 1.69 1.22 2.53l1.35 2.36.63 1.16.3.58.36.54c.47.72.91 1.42 1.34 2.12a18 18 0 001.31 2c.45.63.89 1.26 1.31 1.87a17.92 17.92 0 001.26 1.76c.88 1.09 1.67 2.13 2.39 3.11s1.56 1.76 2.21 2.54l.91 1.11.9.91 1.4 1.46 1.14 1.24 2.85 3c1.88 2 4.67 4.87 8.24 8.73 5.47 6.25 12.95 14.89 21.23 26.37q3.92-7 7.84-13.25c-7.19-9.57-13.63-17-18.54-22.61-3.73-4-6.65-7.07-8.61-9.13l-3-3.1-1-1.06-1.15-1.18-.77-.78-.78-1c-.55-.66-1.18-1.37-1.88-2.15s-1.27-1.72-2-2.64a13.86 13.86 0 01-1.06-1.5c-.35-.52-.73-1-1.12-1.58a13.51 13.51 0 01-1.1-1.71q-.54-.88-1.14-1.8l-.31-.45-.25-.49c-.18-.32-.35-.65-.53-1-.36-.66-.75-1.31-1.14-2s-.67-1.43-1-2.14l-.56-1.08c-.19-.37-.32-.76-.48-1.14-.32-.77-.66-1.54-1-2.31s-.57-1.62-.9-2.42l-.49-1.23c-.16-.41-.26-.85-.4-1.27-.26-.86-.55-1.71-.86-2.57a107.29 107.29 0 01-2.41-11 105.08 105.08 0 01-.87-11.7 105.08 105.08 0 01.87-11.7 107.29 107.29 0 012.41-11c.31-.86.6-1.72.86-2.57.14-.43.24-.86.4-1.28s.33-.81.49-1.22c.33-.81.58-1.64.9-2.43s.71-1.53 1-2.3c.16-.38.29-.78.48-1.14l.56-1.08c.36-.72.71-1.43 1-2.14s.78-1.34 1.14-2c.18-.33.35-.66.53-1l.25-.49.31-.46c.4-.6.78-1.2 1.14-1.79a13.51 13.51 0 011.1-1.71c.39-.54.77-1.06 1.12-1.59a13.72 13.72 0 011.06-1.49c.76-.92 1.43-1.81 2-2.65s1.33-1.48 1.88-2.15c.28-.33.54-.65.78-.95l.77-.77 1.19-1.25c.28-.3.48-.53.64-.71l-.36-.36 1.07-1c.34-.33.75-.73 1.25-1.19l.77-.78 1-.77c.67-.55 1.38-1.19 2.15-1.88s1.73-1.28 2.65-2a13.79 13.79 0 011.49-1.07q.78-.53 1.59-1.11a14.77 14.77 0 011.71-1.11c.59-.36 1.19-.73 1.79-1.14l.46-.3.49-.25 1-.53c.66-.36 1.32-.76 2-1.15s1.43-.66 2.15-1l1.08-.57c.36-.19.76-.31 1.14-.48.76-.32 1.53-.66 2.3-1s1.62-.58 2.43-.9l1.22-.5c.41-.16.85-.25 1.28-.39a51.3 51.3 0 002.56-.86 81.77 81.77 0 0122.74-3.28h.21v14.18h-.34a93 93 0 00-9.65.72c-3.14.5-6.17 1.22-9.07 2-.7.26-1.4.5-2.1.71-.35.12-.71.19-1.05.32l-1 .41c-.66.28-1.34.47-2 .73s-1.25.59-1.88.85c-.31.13-.64.23-.94.38l-.88.47c-.58.3-1.17.58-1.76.83s-1.08.66-1.62.95l-.81.43-.4.2-.37.26q-.74.49-1.47.93a9.61 9.61 0 00-1.4.91c-.44.32-.87.62-1.3.91a10 10 0 00-1.23.87c-.75.63-1.48 1.18-2.18 1.66s-1.21 1.11-1.76 1.57l-.79.63-.64.64c-.4.4-.75.73-1 1l-.9.8.37.36-.47.53-1 1-.65.64c-.2.24-.41.51-.63.79-.45.55-1 1.13-1.56 1.76s-1 1.43-1.66 2.18a10.1 10.1 0 00-.88 1.23c-.28.43-.59.86-.91 1.3a9.56 9.56 0 00-.9 1.4c-.3.49-.61 1-.94 1.47l-.26.37-.2.4c-.14.27-.28.54-.43.81-.29.54-.62 1.08-.94 1.63s-.53 1.17-.83 1.76l-.47.87c-.16.3-.25.63-.39.94-.25.63-.53 1.26-.84 1.88s-.46 1.34-.73 2c-.14.33-.28.66-.41 1s-.21.7-.32 1c-.21.7-.45 1.4-.71 2.11-.76 2.89-1.49 5.92-2 9.06a95.87 95.87 0 00-.71 9.65 95.67 95.67 0 00.71 9.64c.5 3.15 1.23 6.17 2 9.07.26.7.5 1.4.71 2.11.11.34.18.71.32 1s.27.67.41 1c.27.66.46 1.35.73 2s.59 1.26.84 1.89c.14.31.23.64.39.93l.47.88c.3.59.57 1.17.83 1.76s.65 1.09.94 1.63c.15.27.29.54.43.81l.2.4.26.37c.33.49.64 1 .94 1.47a9.56 9.56 0 00.9 1.4c.32.43.63.87.91 1.3a10 10 0 00.88 1.22c.62.75 1.17 1.49 1.66 2.18s1.11 1.22 1.56 1.77l.63.79.65.64 1 1 .79.89 3.12 3.24c2 2.14 5.1 5.31 9 9.53 4.4 5 10 11.46 16.23 19.5 2.93-4.3 5.81-8.3 8.58-12-5.44-6.84-10.32-12.46-14.28-17s-7.23-7.7-9.36-9.93l-3.26-3.37s-.2-.26-.62-.72c-.21-.22-.47-.5-.79-.81l-.51-.5-.49-.63c-.36-.44-.77-.9-1.24-1.39a18 18 0 00-1.3-1.71 6.12 6.12 0 01-.68-1c-.22-.34-.46-.68-.71-1a5.92 5.92 0 01-.71-1.1c-.22-.38-.46-.76-.73-1.14l-.2-.28-.16-.32c-.1-.21-.21-.42-.32-.63-.23-.42-.49-.83-.75-1.26s-.4-.92-.63-1.37c-.12-.23-.25-.46-.38-.68s-.19-.49-.29-.73c-.2-.5-.42-1-.66-1.47s-.35-1-.57-1.55q-.15-.39-.33-.78c-.11-.26-.15-.55-.24-.82-.16-.55-.35-1.09-.56-1.64-.58-2.27-1.16-4.64-1.55-7.1s-.5-5-.57-7.59.27-5.1.57-7.59 1-4.83 1.55-7.11c.21-.54.4-1.08.56-1.63.09-.28.13-.56.24-.82s.23-.52.33-.78c.22-.51.35-1.05.57-1.56s.46-1 .66-1.46c.1-.24.17-.5.29-.73s.26-.45.38-.68c.23-.45.44-.91.63-1.37s.52-.84.75-1.26l.28-.46.16-.31.2-.29a12.87 12.87 0 00.73-1.14 6.19 6.19 0 01.71-1.09c.25-.34.49-.67.71-1a6.12 6.12 0 01.68-1 19.39 19.39 0 001.3-1.71c.47-.49.88-.95 1.24-1.39l.49-.63.51-.5c.32-.31.58-.59.79-.82l.31-.34-.37-.37s.26-.21.71-.62c.23-.21.51-.47.82-.79l.5-.52.63-.49c.44-.35.89-.77 1.38-1.24a17.91 17.91 0 001.72-1.29 5.17 5.17 0 011-.68c.33-.22.67-.46 1-.72a6.14 6.14 0 011.09-.7c.38-.22.76-.47 1.14-.73l.29-.21.31-.15.64-.33c.42-.22.83-.48 1.25-.74s.92-.4 1.38-.64l.68-.37c.23-.13.49-.19.73-.3a14.57 14.57 0 001.46-.66c.5-.21 1.05-.34 1.56-.56.26-.1.52-.21.77-.33s.55-.15.82-.24a16.77 16.77 0 001.64-.57c2.28-.57 4.64-1.15 7.11-1.55s5-.49 7.59-.56h.34v14.17c-1.75.07-3.49.21-5.19.39s-3.5.74-5.14 1.12a7.56 7.56 0 01-1.18.42 5.72 5.72 0 00-.59.17l-.55.25c-.37.16-.76.24-1.12.39a7.46 7.46 0 01-1 .48c-.18.08-.37.11-.53.2l-.48.28a7.28 7.28 0 01-1 .44c-.3.19-.59.39-.89.55l-.46.22-.23.11-.2.15a7 7 0 01-.81.53 3.15 3.15 0 00-.78.5 8.86 8.86 0 01-.73.52 2.83 2.83 0 00-.69.48 9 9 0 01-1.25.93 10.13 10.13 0 01-1 .92c-.16.13-.32.24-.47.35l-.36.39c-.23.24-.44.43-.61.58-.34.3-.54.45-.54.45a6.93 6.93 0 01-.44.54c-.16.17-.35.37-.59.6l-.39.36a4.76 4.76 0 01-.35.47 10.11 10.11 0 01-.91 1 8.45 8.45 0 01-.94 1.24 3.47 3.47 0 00-.48.7 8.11 8.11 0 01-.52.72 3.21 3.21 0 00-.5.79 7.47 7.47 0 01-.53.81l-.15.2-.1.23c-.07.15-.15.3-.23.46s-.35.59-.55.89a6.55 6.55 0 01-.44 1 3.77 3.77 0 01-.28.48c-.09.17-.12.36-.2.53a7 7 0 01-.48 1c-.15.36-.23.76-.39 1.12-.08.19-.16.37-.25.56a5.08 5.08 0 00-.16.59 8.16 8.16 0 01-.42 1.17c-.39 1.65-.82 3.36-1.12 5.15s-.35 3.66-.42 5.53.22 3.72.42 5.53.73 3.5 1.12 5.14a8.74 8.74 0 01.42 1.18 5.69 5.69 0 00.16.59c.09.18.17.37.25.55.16.37.24.76.39 1.12a7.08 7.08 0 01.48 1.05c.08.17.11.36.2.52s.2.32.28.48a6.65 6.65 0 01.44 1c.2.3.39.59.55.89.08.15.16.3.23.46l.1.23.15.2a6.61 6.61 0 01.53.81 3.41 3.41 0 00.5.79 6.87 6.87 0 01.52.72 3.47 3.47 0 00.48.7 8.45 8.45 0 01.94 1.24 11.32 11.32 0 01.91 1c.13.16.25.32.35.47l.39.36c.24.23.43.44.59.61a6.93 6.93 0 01.44.54l3.39 3.5c2.22 2.32 5.53 5.76 9.74 10.33 3.59 4.09 7.9 9 12.7 15v23.25c-2.81 3.87-5.71 8-8.66 12.47a349.42 349.42 0 00-57.29 175.07 353.62 353.62 0 002.26 59.84A347.16 347.16 0 00565 696v4h-14.52c-1-1.43-2-2.86-3-4.3-1.11 1.44-2.25 2.87-3.39 4.3h-18.37c.2-.23.41-.46.6-.69 4.52-5.28 8.82-10.71 12.95-16.23q-4.1-6.57-7.85-13.25-7.47 10.39-15.87 20.28c-2.87 3.35-5.84 6.64-8.86 9.89H486.9q9.41-9.21 17.87-19.09a292.47 292.47 0 0019.14-25.07q-3.76-7.4-7.15-14.88a277.65 277.65 0 01-50.66 59h-22.21a266.65 266.65 0 0039.32-37.5A263.31 263.31 0 00510 624.94q-3.47-8.79-6.43-17.61c-.75 1.43-1.5 2.86-2.28 4.27a249 249 0 01-28.83 41.7 253.1 253.1 0 01-37.88 36q-7.26 5.59-15 10.68h-27.89a236.72 236.72 0 0097.15-95.22q4.73-8.6 8.63-17.4-3.32-12.07-5.72-24.1a219.69 219.69 0 01-40.88 71.61 224.26 224.26 0 01-33.61 32 221.58 221.58 0 01-40.61 24.82 213.19 213.19 0 01-20.32 8.31H208.67a213.19 213.19 0 01-20.32-8.32 221.58 221.58 0 01-40.61-24.82 224.26 224.26 0 01-33.61-32 219.91 219.91 0 01-42.5-76.5 221.21 221.21 0 013.06-142.93 221.31 221.31 0 0123.07-45.87A239.6 239.6 0 01118 343.45l8-8.48 2.17-2.3 2.61-2.75 1.66-1.74 1.77-2.07 4.15-4.83 4.58-5.92c.85-1 1.6-2.19 2.42-3.36l2.5-3.59c.89-1.21 1.69-2.52 2.52-3.86s1.69-2.69 2.56-4.09a181.15 181.15 0 0018.06-41 201.68 201.68 0 005.43-24.76 201.84 201.84 0 001.92-26.11 201.84 201.84 0 00-1.92-26.11 201.27 201.27 0 00-5.43-24.76 195 195 0 00-9-23.85q-10-3.53-19.86-7.63a169 169 0 0115.27 35.5 186.2 186.2 0 015 22.8 186.11 186.11 0 011.76 24.05 186.11 186.11 0 01-1.76 24 186.61 186.61 0 01-5 22.8 166.74 166.74 0 01-16.61 37.74l-2.36 3.76c-.76 1.23-1.49 2.44-2.31 3.55l-2.31 3.31c-.75 1.07-1.44 2.13-2.23 3.08l-4.21 5.46-3.83 4.44-1.55 1.95-1.53 1.61-2.47 2.54-2 2.11s-.74.79-2.19 2.3-3.6 3.76-6.36 6.72a255.42 255.42 0 00-21.54 27.82 234.74 234.74 0 00-24.53 48.82 235.27 235.27 0 00-3.26 152.07 234 234 0 0045.23 81.42 235.93 235.93 0 0070 55.91h-27.9q-7.72-5.09-15-10.68a253.1 253.1 0 01-37.88-36 248.44 248.44 0 01-48-86.35 249.6 249.6 0 013.45-161.21A249.48 249.48 0 0174.11 354a268 268 0 0122.83-29.48c2.92-3.15 5.21-5.52 6.74-7.13l2.32-2.43 1.83-1.94 2.21-2.32 1.4-1.47 1.49-1.75q1.57-1.85 3.5-4.06l3.85-5c.72-.87 1.35-1.84 2-2.82l2.11-3c.75-1 1.42-2.12 2.11-3.24s1.43-2.27 2.16-3.44a152.29 152.29 0 0015.17-34.46 175 175 0 004.58-20.84 174.15 174.15 0 001.61-22 174.31 174.31 0 00-1.61-22 175.25 175.25 0 00-4.58-20.83 152.09 152.09 0 00-15.17-34.46c-.73-1.17-1.45-2.32-2.16-3.44s-1.36-2.23-2.11-3.24l-2.11-3c-.68-1-1.31-2-2-2.82l-3.3-4.28q-7.64-3.92-15.06-8.18a362.39 362.39 0 01-40.64-27.21q-9-6.94-17.44-14.35l-1.35-.44a173 173 0 00-20.84-4.57A174.41 174.41 0 000 58.19V44a187.4 187.4 0 0123.65 1.75q-7.48-7.62-14.46-15.6c-3.06-.15-6.12-.27-9.19-.3V0h3c4.51 6 9.2 12 14.13 17.72a352.25 352.25 0 0052.8 50.21 349.35 349.35 0 0064.16 39.19 350.69 350.69 0 00148.41 33.12 350.84 350.84 0 00148.42-33.12 349.35 349.35 0 0064.16-39.19 352.25 352.25 0 0052.8-50.21c2.81-3.29 5.52-6.63 8.19-10Q553.22 3.9 550.48 0zM337.28 150.21c-2 7.79-3.62 15.82-4.85 24a257.38 257.38 0 00-2.52 34.34 257.38 257.38 0 002.52 34.34 256.72 256.72 0 007.16 32.6 237.58 237.58 0 0023.81 54.12c1.15 1.84 2.28 3.65 3.37 5.41s2.18 3.48 3.33 5.09l3.3 4.73c1.08 1.54 2.09 3 3.19 4.42l6.05 7.79 5.43 6.36 2.35 2.71c.76.82 1.49 1.59 2.16 2.3l3.42 3.61 2.87 3 6 6.35a181.56 181.56 0 0115.06 19.45 163.88 163.88 0 0117.11 34 164.56 164.56 0 012.27 106.38 163.33 163.33 0 01-31.57 56.81 164.29 164.29 0 01-250.5 0 163.33 163.33 0 01-31.57-56.81A164.56 164.56 0 01128 434.89a163.88 163.88 0 0117.11-34 182.6 182.6 0 0115.06-19.45l6-6.35 2.87-3 3.42-3.61c.67-.71 1.4-1.48 2.16-2.3l2.35-2.71 5.43-6.36 6-7.79c1.1-1.38 2.11-2.88 3.19-4.42l3.3-4.73c1.15-1.61 2.23-3.33 3.33-5.09s2.22-3.57 3.37-5.41a219.67 219.67 0 0013.44-26q-3.21-12-5.71-24.43a219.23 219.23 0 01-19.88 43.12l-3.17 5.07c-1 1.66-2 3.28-3.13 4.79l-3.1 4.45c-1 1.44-2 2.86-3 4.15l-5.68 7.32-5.11 6-2.2 2.55-2 2.16-3.23 3.39-2.71 2.76-6.52 6.88A197.83 197.83 0 00133.23 393 179.24 179.24 0 00104 482.64a181.13 181.13 0 008.19 62.91 177.38 177.38 0 0034.3 61.73 178.47 178.47 0 00272.06 0 177.38 177.38 0 0034.3-61.73A178.71 178.71 0 00450.37 430a179.13 179.13 0 00-18.6-37 197.83 197.83 0 00-16.36-21.12l-6.52-6.88-2.69-2.82-3.2-3.36-2-2.16-2.2-2.55-5.11-6-5.69-7.3c-1-1.29-2-2.71-3-4.15l-3.1-4.45c-1.09-1.51-2.1-3.13-3.13-4.79l-3.17-5.07a223.42 223.42 0 01-22.37-50.85 243 243 0 01-6.73-30.64 243.33 243.33 0 01-2.37-32.28 243.6 243.6 0 012.37-32.29 241.42 241.42 0 016.21-28.77q-7.71 1.48-15.43 2.69zm-29.87 3.32c-1.16 5.45-2.19 11-3 16.59a287.05 287.05 0 00-2.82 38.46 287.05 287.05 0 002.79 38.42 283.56 283.56 0 008 36.52 266 266 0 0026.69 60.68l3.78 6.05c1.23 2 2.44 3.91 3.73 5.71l3.69 5.31c1.21 1.71 2.36 3.4 3.59 4.94 2.41 3.12 4.68 6 6.77 8.73l6.08 7.13 2.63 3 2.41 2.57c1.51 1.59 2.79 3 3.84 4l3.2 3.35s1.72 1.86 5 5.27a155.15 155.15 0 0112.47 16.1 135.58 135.58 0 0114.13 28.14 136.17 136.17 0 011.88 88.1 134.93 134.93 0 01-26.11 47 138.59 138.59 0 01-20.81 19.79 136.23 136.23 0 01-24.9 15.25 136.56 136.56 0 01-116 0 136.23 136.23 0 01-24.9-15.25 138.59 138.59 0 01-20.81-19.79 134.93 134.93 0 01-26.11-47 136.17 136.17 0 011.88-88.1 135.58 135.58 0 0114.13-28.14 155.15 155.15 0 0112.47-16.1c3.28-3.41 5-5.27 5-5.27l3.2-3.35c1.05-1.09 2.33-2.45 3.84-4l2.41-2.57 2.63-3 6.08-7.13c2.09-2.69 4.36-5.61 6.77-8.73 1.23-1.54 2.38-3.23 3.59-4.94l3.69-5.31c1.29-1.8 2.5-3.73 3.73-5.71l3.78-6.05c.56-.92 1.11-1.85 1.66-2.79q-3.37-8.59-6.44-17.65c-2.4 4.63-4.86 9-7.37 13.14l-3.58 5.73c-1.16 1.87-2.3 3.69-3.52 5.4l-3.5 5c-1.14 1.62-2.23 3.22-3.39 4.68l-6.34 8.29c-2.09 2.46-4 4.71-5.76 6.74l-2.48 2.88c-.82.86-1.58 1.68-2.29 2.43l-3.63 3.83c-2 2.06-3 3.17-3 3.17l-5.51 5.8a171 171 0 00-13.77 17.78 150.47 150.47 0 00-15.62 31.09 150.33 150.33 0 00-2.1 97.28A149.05 149.05 0 00168 588.88a153.81 153.81 0 0023 21.83 150.71 150.71 0 0027.53 16.84 150.65 150.65 0 00128 0A150.71 150.71 0 00374 610.71a153.81 153.81 0 0023-21.83A149.05 149.05 0 00425.81 537a150.33 150.33 0 00-2.07-97.24 150.47 150.47 0 00-15.62-31.09 171 171 0 00-13.77-17.78l-5.51-5.8s-1-1.11-3-3.17l-3.63-3.83c-.71-.75-1.47-1.57-2.29-2.43l-2.48-2.88c-1.74-2-3.67-4.28-5.76-6.74l-6.41-8.26c-1.16-1.46-2.25-3.06-3.39-4.68l-3.5-5c-1.22-1.71-2.36-3.53-3.52-5.4l-3.58-5.73A252 252 0 01326 279.54a272.22 272.22 0 01-7.6-34.54 271.45 271.45 0 01-2.66-36.4 271.33 271.33 0 012.66-36.4c1-6.79 2.32-13.46 3.83-20q-7.39.8-14.82 1.33zm-29.09.85q-1.1 5.76-2 11.62a313.36 313.36 0 00-3.11 42.58 313.33 313.33 0 003.11 42.57 315.64 315.64 0 008.89 40.45 294.66 294.66 0 0029.58 67.23l4.18 6.71c1.37 2.19 2.71 4.32 4.13 6.32l4.1 5.88c1.34 1.9 2.61 3.77 4 5.48 2.65 3.47 5.16 6.7 7.5 9.67s4.69 5.51 6.73 7.88l2.91 3.36L351 407l4.24 4.47 3.55 3.69s1.34 1.5 4 4.2a130.06 130.06 0 019.89 12.76 108.07 108.07 0 0111.14 22.22 107.73 107.73 0 011.48 69.83 106.51 106.51 0 01-20.63 37.12A110.79 110.79 0 01348.09 577a108.36 108.36 0 01-19.67 12.06 108.18 108.18 0 01-91.84 0A108.36 108.36 0 01216.91 577a111.27 111.27 0 01-16.55-15.74 106.51 106.51 0 01-20.63-37.12 107.73 107.73 0 011.48-69.83 108.07 108.07 0 0111.14-22.22 130.06 130.06 0 019.89-12.76c2.64-2.7 4-4.2 4-4.2l3.55-3.69L214 407l2.67-2.85 2.91-3.36c2-2.37 4.31-5 6.73-7.88s4.85-6.2 7.5-9.67c1.36-1.71 2.63-3.58 4-5.48l3.64-5.23q-3.65-7.25-7.12-15l-.24.39c-1.3 2.08-2.58 4.11-3.93 6l-3.9 5.6c-1.27 1.8-2.48 3.58-3.77 5.21-2.53 3.3-4.92 6.37-7.14 9.2s-4.46 5.24-6.41 7.5l-2.76 3.19c-.91 1-1.76 1.87-2.54 2.72l-4 4.25-3.38 3.52s-1.53 1.68-4.49 4.74a141.5 141.5 0 00-11.18 14.43 122 122 0 00-12.64 25.17 122 122 0 00-1.68 79 120.89 120.89 0 0023.37 42 124.94 124.94 0 0018.68 17.77 122.25 122.25 0 0022.29 13.66 122.41 122.41 0 00103.9 0 122.25 122.25 0 0022.29-13.66 124.94 124.94 0 0018.68-17.77 120.89 120.89 0 0023.37-42 122 122 0 00-1.68-79 122 122 0 00-12.64-25.17 141.5 141.5 0 00-11.18-14.43c-3-3.06-4.49-4.74-4.49-4.74l-3.38-3.52c-1.09-1.16-2.45-2.58-4-4.25-.78-.85-1.63-1.75-2.54-2.72l-2.76-3.19c-1.95-2.26-4.1-4.76-6.41-7.5s-4.61-5.9-7.14-9.2c-1.29-1.63-2.5-3.41-3.77-5.21l-3.9-5.6c-1.35-1.9-2.63-3.93-3.93-6s-2.63-4.21-4-6.39a280 280 0 01-28.14-63.95 299 299 0 01-8.45-38.48 299.5 299.5 0 01-3-40.52 299.38 299.38 0 013-40.52c.69-4.65 1.51-9.25 2.42-13.81q-5.13.17-10.28.16c-1.47 0-2.87-.01-4.26-.03zm-28.55-1.49c-.53 3-1 6-1.48 9a342.92 342.92 0 00-3.42 46.69 342.92 342.92 0 003.42 46.69 341.23 341.23 0 009.71 44.37 323.27 323.27 0 0032.45 73.78q2.36 3.76 4.59 7.37c1.51 2.4 3 4.73 4.54 6.93s3 4.36 4.49 6.46 2.88 4.12 4.36 6q4.36 5.7 8.23 10.6c2.66 3.17 5.13 6 7.38 8.65 1.12 1.3 2.19 2.52 3.19 3.67l2.92 3.13 4.65 4.9 3.89 4.05s1 1.14 3 3.13a101.24 101.24 0 017.3 9.41 80.16 80.16 0 018.18 16.28 79.44 79.44 0 011.08 51.55 78.26 78.26 0 01-15.17 27.28 82.85 82.85 0 01-12.28 11.68 80.16 80.16 0 01-14.44 8.87 79.89 79.89 0 01-67.72 0 80.16 80.16 0 01-14.44-8.87 82.85 82.85 0 01-12.28-11.68 78.26 78.26 0 01-15.17-27.28 79.44 79.44 0 011.08-51.55 80.16 80.16 0 018.17-16.27 101.24 101.24 0 017.3-9.41c2-2 3-3.13 3-3.13l3.89-4.05 4.65-4.9 2.92-3.13c1-1.15 2.07-2.37 3.19-3.67 2.25-2.6 4.72-5.48 7.38-8.65s5.32-6.8 8.23-10.6l.3-.4-2.86-4.49q-2.58-4.24-5.12-8.74c-1.25 1.78-2.47 3.53-3.74 5.14-2.79 3.64-5.42 7-7.87 10.14s-4.91 5.78-7.05 8.27l-3.06 3.51-2.79 3-4.37 4.67-3.73 3.88s-1.16 1.32-3.47 3.66a115.05 115.05 0 00-8.59 11.09 93.29 93.29 0 00-9.66 19.26 93.67 93.67 0 00-1.28 60.69 92.3 92.3 0 0017.9 32.2 96.61 96.61 0 0014.42 13.71 93.57 93.57 0 0017.05 10.46 94 94 0 0079.78 0 93.57 93.57 0 0017.05-10.46 96.61 96.61 0 0014.42-13.71 92.3 92.3 0 0017.9-32.2 93.67 93.67 0 00-1.28-60.69 93.29 93.29 0 00-9.66-19.26 115.05 115.05 0 00-8.59-11.09c-2.31-2.34-3.47-3.67-3.47-3.67l-3.79-3.87-4.44-4.68-2.79-3-3.06-3.51c-2.14-2.49-4.51-5.24-7.05-8.27s-5.08-6.5-7.87-10.14c-1.41-1.79-2.76-3.75-4.16-5.74l-4.29-6.17c-1.49-2.1-2.9-4.33-4.34-6.62l-4.38-7.05a308.19 308.19 0 01-31-70.5 327.77 327.77 0 01-9.32-42.41 328.81 328.81 0 01-3.3-44.62 329.08 329.08 0 013.27-44.64c.5-3.36 1.07-6.71 1.68-10-4.71-.27-9.45-.62-14.18-1.05zm-28.13-3.67q-.75 4.26-1.4 8.55a371 371 0 00-3.72 50.81 371 371 0 003.72 50.81 370.2 370.2 0 0010.62 48.29A351 351 0 00266.19 388l5 8c1.64 2.61 3.25 5.15 4.94 7.54l4.89 7c1.6 2.27 3.13 4.49 4.74 6.54 3.16 4.15 6.16 8 9 11.54s5.58 6.59 8 9.42c1.23 1.4 2.39 2.74 3.48 4l3.18 3.41 5.05 5.32 4.24 4.4a20.46 20.46 0 001.95 2.06c1.11 1.43 2.92 3.36 4.71 6.07a51.25 51.25 0 015.19 10.4 53 53 0 013.07 15.1 53.57 53.57 0 01-2.4 18.2 49.73 49.73 0 01-9.71 17.43 54.11 54.11 0 01-8 7.63 51.5 51.5 0 01-9.2 5.67 51.52 51.52 0 01-43.6 0 51.5 51.5 0 01-9.2-5.67 54.11 54.11 0 01-8-7.63 49.73 49.73 0 01-9.75-17.43 53.55 53.55 0 01-2.38-18.16 53 53 0 013.07-15.11 51.25 51.25 0 015.19-10.4c1.79-2.71 3.61-4.64 4.71-6.07a20.46 20.46 0 001.95-2.06l4.24-4.4 5-5.32 3.18-3.41 3.48-4c2.44-2.83 5.13-6 8-9.42 1.06-1.34 2.16-2.74 3.27-4.17-1.36-1.82-2.7-3.73-4.08-5.69l-4.4-6.38q-3 3.87-5.72 7.33c-2.77 3.31-5.36 6.32-7.7 9l-3.34 3.84-3 3.26-4.88 5.16-4.07 4.23s-.79 1-2.46 2.59a91.28 91.28 0 00-6 7.74 65 65 0 00-6.68 13.36 67.24 67.24 0 00-3.92 19.27 68 68 0 003 23.14 63.85 63.85 0 0012.44 22.35 67.77 67.77 0 0010.15 9.66 65.72 65.72 0 0011.82 7.27 65.66 65.66 0 0055.66 0 65.72 65.72 0 0011.82-7.27 67.77 67.77 0 0010.15-9.66 63.85 63.85 0 0012.44-22.35 68 68 0 003-23.14 67.24 67.24 0 00-3.92-19.27 65 65 0 00-6.68-13.36 91.28 91.28 0 00-6-7.74c-1.67-1.63-2.46-2.59-2.46-2.59l-4.01-4.23-4.85-5.11-3-3.26-3.34-3.84c-2.34-2.71-4.93-5.72-7.7-9s-5.56-7.09-8.6-11.07c-1.54-2-3-4.1-4.55-6.27l-4.69-6.75c-1.62-2.3-3.16-4.73-4.73-7.24l-4.8-7.7a337.24 337.24 0 01-33.89-77 354.71 354.71 0 01-10.18-46.33 353.88 353.88 0 01-3.57-48.75 353.76 353.76 0 013.57-48.75c.42-2.85.89-5.68 1.39-8.5q-7.07-1.01-14.06-2.21zm87 316l-4.42-4.57c-1.42-1.51-3.18-3.36-5.25-5.54-1-1.1-2.13-2.28-3.3-3.55l-3.62-4.15c-2.54-2.94-5.35-6.2-8.34-9.8-.41-.51-.83-1-1.24-1.57-.41.53-.83 1.06-1.24 1.57-3 3.6-5.8 6.86-8.34 9.8l-3.62 4.15c-1.17 1.27-2.28 2.45-3.3 3.55-2.07 2.18-3.83 4-5.25 5.54l-4.42 4.57a10 10 0 01-1.44 1.53c-.78 1.07-2.14 2.45-3.41 4.39a36.33 36.33 0 00-3.7 7.45 39 39 0 00-2.24 10.94 39.61 39.61 0 001.74 13.19 35.69 35.69 0 007 12.51 40.36 40.36 0 005.88 5.6 37.57 37.57 0 006.59 4.08 37.37 37.37 0 0031.54 0 37.57 37.57 0 006.59-4.08 40.36 40.36 0 005.88-5.6 35.69 35.69 0 007-12.51 39.61 39.61 0 001.74-13.19 39 39 0 00-2.24-10.94 36.33 36.33 0 00-3.7-7.45c-1.27-1.94-2.63-3.32-3.41-4.39a10 10 0 01-1.45-1.5zm177.69 62.28a368.51 368.51 0 01-1.33-53.84q.48-9.35 1.41-18.39a203.49 203.49 0 00-9.36-35 207.3 207.3 0 00-21.58-42.91 226.15 226.15 0 00-18.95-24.46l-7.59-7.9-2.34-2.47-2.82-3-1.77-1.86-1.92-2.23-4.46-5.21-4.95-6.39c-.91-1.12-1.74-2.36-2.62-3.62l-2.7-3.88c-.95-1.3-1.83-2.72-2.72-4.16l-2.76-4.42a194.8 194.8 0 01-19.5-44.3 214.77 214.77 0 01-5.86-26.71 215.82 215.82 0 01-2.07-28.17 215.69 215.69 0 012.07-28.17 214.93 214.93 0 015.86-26.72c1.48-4.86 3.11-9.58 4.85-14.12Q377 142 368.57 144c-.61 1.86-1.22 3.74-1.8 5.64a230 230 0 00-6.3 28.68 227.87 227.87 0 00-2.21 30.23 228 228 0 002.21 30.23 229.87 229.87 0 006.3 28.67 208.77 208.77 0 0020.94 47.57l3 4.75c1 1.55 1.9 3.07 2.92 4.47s2 2.82 2.91 4.17 1.83 2.68 2.8 3.88l5.32 6.86c1.74 2 3.34 3.91 4.79 5.59.72.85 1.41 1.64 2 2.4l1.91 2 3 3.18 2.52 2.64 7 7.41a212.52 212.52 0 0117.65 22.8 192.54 192.54 0 0120.09 39.95 192.77 192.77 0 012.66 124.66 191.62 191.62 0 01-37 66.66 192.65 192.65 0 01-293.62 0 191.62 191.62 0 01-37-66.66 192.77 192.77 0 012.66-124.66 192.54 192.54 0 0120.09-39.95 212.52 212.52 0 0117.65-22.8l7-7.41 2.52-2.64 3-3.18 1.91-2c.64-.76 1.33-1.55 2.05-2.4 1.45-1.68 3-3.55 4.79-5.59l5.32-6.86c1-1.2 1.86-2.53 2.8-3.88s1.91-2.74 2.91-4.17 2-2.92 2.92-4.47l3-4.75a208.77 208.77 0 0020.94-47.57 232.68 232.68 0 005.74-25.2c-1-11.16-1.58-22.43-1.62-33.7s.59-22.54 1.62-33.7a232.32 232.32 0 00-5.74-25.21c-.58-1.9-1.19-3.78-1.8-5.64q-8.38-2-16.64-4.46c1.74 4.54 3.37 9.26 4.85 14.12a214.93 214.93 0 015.86 26.72 215.69 215.69 0 012.07 28.17 215.82 215.82 0 01-2.07 28.17 214.77 214.77 0 01-5.86 26.71 194.8 194.8 0 01-19.5 44.3l-2.76 4.42c-.89 1.44-1.77 2.86-2.72 4.16l-2.7 3.88c-.88 1.26-1.71 2.5-2.62 3.62l-5 6.39-4.46 5.21-1.87 2.26-1.78 1.89-2.82 3-2.33 2.44-7.54 7.95a226.15 226.15 0 00-19 24.46 207.53 207.53 0 00-33.86 103.85 209.77 209.77 0 009.47 72.85 206.09 206.09 0 0039.77 71.58 210.09 210.09 0 0031.48 29.94 206.53 206.53 0 00252.22 0 210.09 210.09 0 0031.48-29.94 205.43 205.43 0 0046.27-98.16zm-63.54-401.3q-9.79 4.14-19.79 7.66a195 195 0 00-9 23.85 201.27 201.27 0 00-5.43 24.76 201.84 201.84 0 00-1.92 26.11 201.84 201.84 0 001.92 26.11 201.68 201.68 0 005.43 24.76 181.15 181.15 0 0018.06 41q1.31 2.1 2.56 4.09c.83 1.34 1.63 2.65 2.52 3.86l2.5 3.59c.82 1.17 1.57 2.32 2.42 3.36l4.58 5.92 4.15 4.83 1.77 2.07 1.66 1.74 2.61 2.75L439 335l8.05 8.48a239.6 239.6 0 0120.24 26.14 220.82 220.82 0 0123.07 45.87c.49 1.32 1 2.68 1.44 4q2.5-12.44 5.7-24.1a230.24 230.24 0 00-18.38-33.62A255.42 255.42 0 00457.53 334c-2.76-3-4.92-5.2-6.36-6.72s-2.19-2.3-2.19-2.3l-2-2.11-2.42-2.54-1.56-1.65-1.62-1.91-3.83-4.44-4.21-5.46c-.79-.95-1.48-2-2.23-3.08l-2.31-3.31c-.82-1.11-1.55-2.32-2.31-3.55l-2.36-3.76a166.74 166.74 0 01-16.61-37.74 186.61 186.61 0 01-5-22.8 186.11 186.11 0 01-1.76-24 186.11 186.11 0 011.76-24.05 186.2 186.2 0 015-22.8 169 169 0 0115.3-35.55z" fill="#212121"/></pattern></defs><path fill="url(#a)" d="M0 0h2560v1440H0z"/></svg>