<svg xmlns="http://www.w3.org/2000/svg" xmlns:xlink="http://www.w3.org/1999/xlink" width="903.11mm" height="508mm" viewBox="0 0 2560 1440"><defs><pattern id="a" width="800" height="800" patternUnits="userSpaceOnUse" viewBox="0 0 800 800"><rect width="800" height="800" style="fill:none"/><rect width="800" height="800" style="fill:#76c6c0"/><path d="M483.14,162.86q-9.27,9.79-18.31,20.17,5.6.91,11.17,2,12.57,2.36,24.93,5.54c10.11-10.68,20.37-21,30.91-30.57,11.95-10.88,24.09-21.27,36.62-30.66a450.18,450.18,0,0,1,38.32-26.38A431.52,431.52,0,0,1,647,81.06l10.35-4.75c3.48-1.51,7-2.92,10.49-4.38s7.08-2.73,10.62-4.11c1.78-.66,3.53-1.38,5.33-2l5.4-1.79A364.27,364.27,0,0,1,733.23,52.3a339.47,339.47,0,0,1,45.47-5.78c7.09-.33,14.19-.66,21.3-.72v34c-6.82.07-13.65.37-20.45.72a312,312,0,0,0-43.65,5.8A334.75,334.75,0,0,0,693.67,98.1l-5.17,1.79c-1.72.6-3.4,1.32-5.1,2-3.39,1.38-6.83,2.61-10.16,4.11s-6.71,2.86-10,4.36l-9.9,4.74A411.92,411.92,0,0,0,615,136.81a440.9,440.9,0,0,0-36.47,26c-11.9,9.25-23.43,19.42-34.77,30q-4.26,4-8.47,8.13,16.63,5.87,32.81,13.08c6.72-6.17,13.52-12.14,20.49-17.75a430,430,0,0,1,34.6-25.67,395.05,395.05,0,0,1,36.49-21.57l9.43-4.72c3.18-1.5,6.39-2.9,9.58-4.36s6.47-2.72,9.69-4.1c1.63-.66,3.24-1.38,4.88-2l4.94-1.79a310,310,0,0,1,40.4-11.79,286.84,286.84,0,0,1,41.82-5.82q9.78-.72,19.6-.72v34q-9.39,0-18.75.72a262.62,262.62,0,0,0-40,5.84,284.75,284.75,0,0,0-38.57,11.81c-3.15,1.18-6.29,2.38-9.36,3.77s-6.21,2.6-9.23,4.09-6.1,2.86-9.12,4.36l-9,4.7a376.14,376.14,0,0,0-34.64,21.42c-11.06,7.59-21.72,16-32.19,24.85,5.37,2.92,10.73,5.89,16,9.07q6.75,4,13.43,8.24c3.61-2.84,7.25-5.63,11-8.3a359.58,359.58,0,0,1,32.79-21.26l8.51-4.69c2.87-1.49,5.77-2.89,8.66-4.34s5.85-2.72,8.77-4.09,5.91-2.59,8.9-3.77a261.67,261.67,0,0,1,36.74-11.84,240.85,240.85,0,0,1,38.15-5.85q8.94-.72,17.91-.72v34c-5.69,0-11.39.24-17.06.72a219.18,219.18,0,0,0-36.33,5.87,238.67,238.67,0,0,0-34.9,11.86,267.7,267.7,0,0,0-33,16.86Q667.37,258,656.53,265.8l1.61,1.19c8.38,6.18,16.65,12.73,24.84,19.56.69-.45,1.38-.93,2.08-1.37a249.4,249.4,0,0,1,31.16-16.84A200.82,200.82,0,0,1,800,249.9v34a180.62,180.62,0,0,0-79.27,18.48c-4.22,2-8.38,4.22-12.49,6.51q12.27,11.49,24.23,24a161.71,161.71,0,0,1,67.53-15v34a142.52,142.52,0,0,0-43.82,7q8.36,9.65,16.53,19.77l4.3-.2c7.65-.29,15.32-.66,23-.73v34c-7.39.07-14.78.42-22.15.73a367.11,367.11,0,0,0-47.3,5.76A391.71,391.71,0,0,0,684.65,430L679,431.79c-1.87.6-3.71,1.32-5.56,2-3.69,1.38-7.44,2.62-11.07,4.12s-7.33,2.87-11,4.38L640.62,447a451.21,451.21,0,0,0-42,22,465.27,465.27,0,0,0-40.18,26.74c-13.14,9.54-25.9,20.15-38.46,31.27s-24.78,23.21-36.8,35.78q-9.27,9.79-18.31,20.17,5.6.91,11.17,2,12.57,2.36,24.93,5.54c10.11-10.68,20.37-21,30.91-30.57,11.95-10.88,24.09-21.27,36.62-30.66a450.18,450.18,0,0,1,38.32-26.38A431.52,431.52,0,0,1,647,481.06l10.35-4.75c3.48-1.51,7-2.92,10.49-4.38s7.08-2.73,10.62-4.11c1.78-.66,3.53-1.38,5.33-2l5.4-1.79a364.27,364.27,0,0,1,44.07-11.75,339.47,339.47,0,0,1,45.47-5.78c7.09-.33,14.19-.66,21.3-.72v34c-6.82.07-13.65.37-20.45.72a312,312,0,0,0-43.65,5.8,334.75,334.75,0,0,0-42.23,11.77l-5.17,1.79c-1.72.6-3.4,1.32-5.1,2-3.39,1.38-6.83,2.61-10.16,4.11s-6.71,2.86-10,4.36l-9.9,4.74A411.92,411.92,0,0,0,615,536.81a440.9,440.9,0,0,0-36.47,26c-11.9,9.25-23.43,19.42-34.77,30q-4.26,4-8.47,8.13,16.63,5.87,32.81,13.08c6.72-6.17,13.52-12.14,20.49-17.75a430,430,0,0,1,34.6-25.67,395.05,395.05,0,0,1,36.49-21.57l9.43-4.72c3.18-1.5,6.39-2.9,9.58-4.36s6.47-2.73,9.69-4.1c1.63-.66,3.24-1.38,4.88-2l4.94-1.79a310,310,0,0,1,40.4-11.79,286.84,286.84,0,0,1,41.82-5.82q9.78-.72,19.6-.72v34q-9.39,0-18.75.72a262.62,262.62,0,0,0-40,5.84,284.75,284.75,0,0,0-38.57,11.81c-3.15,1.18-6.29,2.38-9.36,3.77s-6.21,2.6-9.23,4.09-6.1,2.86-9.12,4.36l-9,4.7a376.14,376.14,0,0,0-34.64,21.42c-11.06,7.59-21.72,16-32.19,24.85,5.37,2.92,10.73,5.89,16,9.07q6.75,4,13.43,8.24c3.61-2.84,7.25-5.63,11-8.3a359.58,359.58,0,0,1,32.79-21.26l8.51-4.69c2.87-1.49,5.77-2.89,8.66-4.34s5.85-2.72,8.77-4.09,5.91-2.59,8.9-3.77a261.67,261.67,0,0,1,36.74-11.84,240.85,240.85,0,0,1,38.15-5.85q8.94-.72,17.91-.72v34c-5.69,0-11.39.24-17.06.72a219.18,219.18,0,0,0-36.33,5.87,238.67,238.67,0,0,0-34.9,11.86,267.7,267.7,0,0,0-33,16.86Q667.37,658,656.53,665.8l1.61,1.19c8.38,6.18,16.65,12.73,24.84,19.56.69-.45,1.38-.93,2.08-1.37a249.4,249.4,0,0,1,31.16-16.84A200.82,200.82,0,0,1,800,649.9v34a180.62,180.62,0,0,0-79.27,18.48c-4.22,2-8.38,4.22-12.49,6.51q12.27,11.49,24.23,24a161.71,161.71,0,0,1,67.53-15v34a142.52,142.52,0,0,0-43.82,7q8.36,9.65,16.53,19.77l4.3-.2c7.65-.29,15.32-.66,23-.73V800H663.67q-17.88-17.5-36.57-32.71A444.58,444.58,0,0,0,589.87,740c-6.32-4.22-12.78-8.12-19.24-12l-9.8-5.51c-3.28-1.81-6.61-3.47-9.92-5.21-26.58-13.5-54.45-24-83.38-30.12a319.34,319.34,0,0,0-43.8-6.4q-11-.63-22.1-.91c-7.37,0-14.74.36-22.08.74a312,312,0,0,0-43.65,5.8,334.75,334.75,0,0,0-42.23,11.77l-5.17,1.79c-1.72.6-3.4,1.32-5.1,2-3.39,1.38-6.83,2.61-10.16,4.11s-6.71,2.86-10,4.36l-9.9,4.74A411.92,411.92,0,0,0,215,736.81a440.9,440.9,0,0,0-36.47,26c-11.9,9.25-23.43,19.42-34.77,30-2.49,2.33-5,4.71-7.41,7.12H0V777.77l1.83,0q12.42.36,24.85.93l.59,0q2.61-3.27,5.25-6.47Q38.11,765.49,43.8,759a138.53,138.53,0,0,0-43.8-7v-34a156.42,156.42,0,0,1,47.77,7.39,164,164,0,0,1,19.75,7.59l1.89-2c7.38-7.55,14.82-14.92,22.36-22a196.62,196.62,0,0,0-41.18-17.59A175.18,175.18,0,0,0,0,683.91v-34a195.54,195.54,0,0,1,53.42,7.35c22.35,6.13,43.64,16.45,63.63,29.3q13.07-10.87,26.5-20.72c-6.16-4.44-12.42-8.67-18.83-12.58-21.56-13.24-44.47-23.8-68.48-30A220.06,220.06,0,0,0,0,615.85v-34a243.19,243.19,0,0,1,59.06,7.35c25.24,6.21,49.39,16.74,72.21,30,2.83,1.72,5.7,3.36,8.51,5.14l8.38,5.4c5.51,3.79,11,7.58,16.39,11.67,2.3,1.73,4.58,3.5,6.85,5.27q14.5-9.24,29.43-17.35Q187.21,617.79,173,607.62c-5.69-4.14-11.51-8-17.34-11.78l-8.85-5.45c-3-1.78-6-3.43-9-5.16-24.08-13.37-49.47-23.88-75.94-30.07A267.07,267.07,0,0,0,0,547.83v-34a292.24,292.24,0,0,1,64.71,7.31c27.69,6.17,54.32,16.66,79.65,30.1,3.15,1.73,6.33,3.38,9.45,5.18l9.33,5.48c6.14,3.85,12.29,7.71,18.29,11.9a430.59,430.59,0,0,1,35.32,26.94c5.12,4.3,10.19,8.77,15.21,13.35q16.13-7.19,32.78-13Q246.35,583,227.1,567.29A444.58,444.58,0,0,0,189.87,540c-6.32-4.22-12.78-8.12-19.24-12l-9.8-5.51c-3.28-1.81-6.61-3.47-9.92-5.21-26.58-13.5-54.45-24-83.38-30.12a319.34,319.34,0,0,0-43.8-6.4q-11-.63-22.1-.91l-1.63,0v-34c.56,0,1.13,0,1.7,0q11.51.32,23,.92a345.84,345.84,0,0,1,45.64,6.38c30.16,6.13,59.27,16.57,87.11,30.14,3.46,1.75,6.95,3.42,10.39,5.23L178.13,494c6.77,3.93,13.54,7.86,20.18,12.13a459.66,459.66,0,0,1,39.14,27.74,561.68,561.68,0,0,1,61.72,56.76c9.47-2.44,19-4.6,28.7-6.38l7.33-1.2q-5-5.73-10.06-11.3c-24.75-27.06-50.51-50.93-77.35-71.32a469.83,469.83,0,0,0-41-28.13c-7-4.32-14.05-8.29-21.13-12.24l-10.75-5.59c-3.6-1.83-7.25-3.51-10.86-5.26-29.1-13.63-59.45-24.05-90.83-30.16a374.15,374.15,0,0,0-47.48-6.36q-12-.6-23.94-.92l-1.76,0v-34l1.83,0q12.42.36,24.85.93l.59,0q2.61-3.27,5.25-6.47Q38.11,365.49,43.8,359a138.53,138.53,0,0,0-43.8-7v-34a156.42,156.42,0,0,1,47.77,7.39,164,164,0,0,1,19.75,7.59l1.89-2c7.38-7.55,14.82-14.92,22.36-22a196.62,196.62,0,0,0-41.18-17.59A175.18,175.18,0,0,0,0,283.91v-34a195.54,195.54,0,0,1,53.42,7.35c22.35,6.13,43.64,16.45,63.63,29.3q13.07-10.87,26.5-20.72c-6.16-4.44-12.42-8.67-18.83-12.58-21.56-13.24-44.47-23.8-68.48-30A220.5,220.5,0,0,0,0,215.85v-34a243.19,243.19,0,0,1,59.06,7.35c25.24,6.21,49.39,16.74,72.21,30.05,2.83,1.72,5.7,3.36,8.51,5.14l8.38,5.4c5.51,3.79,11,7.58,16.39,11.67,2.3,1.73,4.58,3.5,6.85,5.27q14.5-9.24,29.43-17.35Q187.21,217.79,173,207.62c-5.69-4.14-11.51-8-17.34-11.78l-8.85-5.45c-3-1.78-6-3.43-9-5.16-24.08-13.37-49.47-23.88-75.94-30.07A267.07,267.07,0,0,0,0,147.83v-34a292.24,292.24,0,0,1,64.71,7.31c27.69,6.17,54.32,16.66,79.65,30.1,3.15,1.73,6.33,3.38,9.45,5.18l9.33,5.48c6.14,3.85,12.29,7.71,18.29,11.9a430.59,430.59,0,0,1,35.32,26.94c5.12,4.3,10.19,8.77,15.21,13.35q16.13-7.19,32.78-13Q246.35,183,227.1,167.29A444.58,444.58,0,0,0,189.87,140c-6.32-4.22-12.78-8.12-19.24-12l-9.8-5.51c-3.28-1.81-6.61-3.47-9.92-5.21-26.58-13.5-54.45-24-83.38-30.12a319.34,319.34,0,0,0-43.8-6.4q-11-.63-22.1-.91L0,79.81v-34c.56,0,1.13,0,1.7,0q11.51.31,23,.92a345.84,345.84,0,0,1,45.64,6.38c30.16,6.13,59.27,16.57,87.11,30.14,3.46,1.75,6.95,3.42,10.39,5.23L178.13,94c6.77,3.93,13.54,7.86,20.18,12.13a459.66,459.66,0,0,1,39.14,27.74,561.68,561.68,0,0,1,61.72,56.76c9.47-2.44,19-4.6,28.7-6.38l7.33-1.2q-5-5.73-10.06-11.3c-24.75-27.06-50.51-50.93-77.35-71.32a469.83,469.83,0,0,0-41-28.13c-7-4.32-14.05-8.29-21.13-12.24l-10.75-5.59c-3.6-1.83-7.25-3.51-10.86-5.26C134.91,35.57,104.56,25.15,73.18,19A374.15,374.15,0,0,0,25.7,12.68q-12-.6-23.94-.92L0,11.78V0H136.33l-1.06,1q16.64,5.87,32.81,13.08Q176,6.8,184.17,0h53.92c-2.25,1.49-4.49,3-6.72,4.54-11.06,7.59-21.72,16-32.19,24.85,5.37,2.92,10.73,5.89,16,9.07q6.75,4,13.43,8.24c3.61-2.84,7.25-5.63,10.95-8.3a359.58,359.58,0,0,1,32.79-21.26l8.51-4.69c2.87-1.49,5.77-2.89,8.66-4.34S295.38,5.39,298.3,4s5.91-2.59,8.9-3.77l.64-.25H492.29a301.85,301.85,0,0,1,39,19.24c2.83,1.72,5.7,3.36,8.51,5.13l8.38,5.41c5.51,3.79,11,7.58,16.39,11.67,2.3,1.73,4.58,3.5,6.85,5.27q14.51-9.24,29.43-17.35Q587.21,17.79,573,7.62C569.36,5,565.67,2.47,562,0h53.91l.88.73C621.87,5,626.94,9.5,632,14.08q16.13-7.19,32.78-13L663.67,0H800V11.78c-7.39.07-14.78.42-22.15.73a367.11,367.11,0,0,0-47.3,5.76A391.71,391.71,0,0,0,684.65,30L679,31.79c-1.87.6-3.71,1.32-5.56,2-3.69,1.38-7.44,2.62-11.07,4.12s-7.33,2.87-11,4.38L640.62,47a451.21,451.21,0,0,0-42,22A465.27,465.27,0,0,0,558.4,95.81c-13.14,9.54-25.9,20.15-38.46,31.27S495.16,150.29,483.14,162.86ZM283,86.55c.69-.45,1.38-.93,2.08-1.37a249.4,249.4,0,0,1,31.16-16.84,199.13,199.13,0,0,1,137.2-11.09c22.35,6.13,43.64,16.45,63.63,29.3q13.07-10.87,26.5-20.72c-6.16-4.44-12.42-8.67-18.83-12.58-21.56-13.24-44.47-23.8-68.48-30a216.66,216.66,0,0,0-73.3-6.65,219.18,219.18,0,0,0-36.33,5.87,238.67,238.67,0,0,0-34.9,11.86,267.7,267.7,0,0,0-33,16.86Q267.37,58,256.53,65.8L258.14,67C266.52,73.17,274.79,79.72,283,86.55ZM425.7,612.68q-12-.6-23.94-.92c-8,0-15.95.42-23.91.75a367.11,367.11,0,0,0-47.3,5.76A391.71,391.71,0,0,0,284.65,630L279,631.79c-1.87.6-3.71,1.32-5.56,2-3.69,1.38-7.44,2.62-11.07,4.12s-7.33,2.87-11,4.38L240.62,647a451.21,451.21,0,0,0-42,22,465.27,465.27,0,0,0-40.18,26.74c-13.14,9.54-25.9,20.15-38.46,31.27s-24.78,23.21-36.8,35.78Q73.87,772.66,64.83,783q5.6.91,11.17,2,12.57,2.36,24.93,5.54c10.11-10.68,20.37-21,30.91-30.57,11.95-10.88,24.09-21.27,36.62-30.66a450.18,450.18,0,0,1,38.32-26.38A431.52,431.52,0,0,1,247,681.06l10.35-4.75c3.48-1.51,7-2.92,10.49-4.38s7.08-2.73,10.62-4.11c1.78-.66,3.53-1.38,5.33-2l5.4-1.79a364.27,364.27,0,0,1,44.07-11.75,339.47,339.47,0,0,1,45.47-5.78c7.65-.36,15.32-.72,23-.75q11.51.32,23,.92a345.84,345.84,0,0,1,45.64,6.38c30.16,6.13,59.27,16.57,87.11,30.14,3.46,1.75,6.95,3.42,10.39,5.23L578.13,694c6.77,3.93,13.54,7.86,20.18,12.13a459.66,459.66,0,0,1,39.14,27.74,561.68,561.68,0,0,1,61.72,56.76c9.47-2.44,19-4.6,28.7-6.38l7.33-1.2q-5-5.73-10.06-11.3c-24.75-27.06-50.51-50.93-77.35-71.32a469.83,469.83,0,0,0-41-28.13c-7-4.32-14-8.29-21.13-12.24l-10.75-5.59c-3.6-1.83-7.25-3.51-10.86-5.26-29.1-13.63-59.45-24.05-90.83-30.16A374.15,374.15,0,0,0,425.7,612.68Zm1.57-34q2.61-3.27,5.25-6.47,5.6-6.75,11.28-13.27a140.28,140.28,0,0,0-87.62,0q8.35,9.65,16.53,19.77l4.3-.2c8.25-.31,16.54-.74,24.82-.76q12.42.36,24.85.93Zm64.5-69.84a196.62,196.62,0,0,0-41.18-17.59c-43-12.92-89.58-8.65-129.86,11.11-4.22,2-8.38,4.22-12.49,6.51q12.27,11.49,24.23,24a159.38,159.38,0,0,1,115.3-7.57,164,164,0,0,1,19.75,7.59c.63-.67,1.26-1.35,1.89-2C476.79,523.34,484.23,516,491.77,508.87Zm51.78-43c-6.16-4.44-12.42-8.67-18.83-12.58-21.56-13.24-44.47-23.8-68.48-30a216.66,216.66,0,0,0-73.3-6.65,219.18,219.18,0,0,0-36.33,5.87,238.67,238.67,0,0,0-34.9,11.86,267.7,267.7,0,0,0-33,16.86Q267.37,458,256.53,465.8l1.61,1.19c8.38,6.18,16.65,12.73,24.84,19.56.69-.45,1.38-.93,2.08-1.37a249.4,249.4,0,0,1,31.16-16.84,199.13,199.13,0,0,1,137.2-11.09c22.35,6.13,43.64,16.45,63.63,29.3Q530.12,475.68,543.55,465.83Zm57.28-36.46Q587.21,417.79,573,407.62c-5.69-4.14-11.51-8-17.34-11.78l-8.85-5.45c-3-1.78-6-3.43-9-5.16-24.08-13.37-49.47-23.88-75.94-30.07a268.21,268.21,0,0,0-120.62-.77,284.75,284.75,0,0,0-38.57,11.81c-3.15,1.18-6.29,2.38-9.36,3.77s-6.21,2.6-9.23,4.09-6.1,2.86-9.12,4.36l-9,4.7a376.14,376.14,0,0,0-34.64,21.42c-11.06,7.59-21.72,16-32.19,24.85,5.37,2.92,10.73,5.89,16,9.07q6.75,4,13.43,8.24c3.61-2.84,7.25-5.63,10.95-8.3a359.58,359.58,0,0,1,32.79-21.26l8.51-4.69c2.87-1.49,5.77-2.89,8.66-4.34s5.85-2.72,8.77-4.09,5.91-2.59,8.9-3.77a261.67,261.67,0,0,1,36.74-11.84,244.07,244.07,0,0,1,115.12.78c25.24,6.21,49.39,16.74,72.21,30.05,2.83,1.72,5.7,3.36,8.51,5.14l8.38,5.4c5.51,3.79,11,7.58,16.39,11.67,2.3,1.73,4.58,3.5,6.85,5.27Q585.91,437.48,600.83,429.37Zm63.91-28.3Q646.35,383,627.1,367.29A444.58,444.58,0,0,0,589.87,340c-6.32-4.22-12.78-8.12-19.24-12l-9.8-5.51c-3.28-1.81-6.61-3.47-9.92-5.21-26.58-13.5-54.45-24-83.38-30.12a319.34,319.34,0,0,0-43.8-6.4q-11-.63-22.1-.91c-7.37,0-14.74.36-22.08.74a312,312,0,0,0-43.65,5.8,334.75,334.75,0,0,0-42.23,11.77l-5.17,1.79c-1.72.6-3.4,1.32-5.1,2-3.39,1.38-6.83,2.61-10.16,4.11s-6.71,2.86-10,4.36l-9.9,4.74A411.92,411.92,0,0,0,215,336.81a440.9,440.9,0,0,0-36.47,26c-11.9,9.25-23.43,19.42-34.77,30.05q-4.26,4-8.47,8.13,16.64,5.87,32.81,13.08c6.72-6.17,13.52-12.14,20.49-17.75a430,430,0,0,1,34.6-25.67,395.05,395.05,0,0,1,36.49-21.57l9.43-4.72c3.18-1.5,6.39-2.9,9.58-4.36s6.47-2.72,9.69-4.1c1.63-.66,3.24-1.38,4.88-2l4.94-1.79a310,310,0,0,1,40.4-11.79,293.87,293.87,0,0,1,126.13.77c27.69,6.17,54.32,16.66,79.65,30.1,3.15,1.73,6.33,3.38,9.45,5.18l9.33,5.48c6.14,3.85,12.29,7.71,18.29,11.9a430.59,430.59,0,0,1,35.32,26.94c5.12,4.3,10.19,8.77,15.21,13.35Q648.09,406.9,664.74,401.07Zm-239-188.39q-12-.6-23.94-.92c-8,0-15.95.42-23.91.75a367.11,367.11,0,0,0-47.3,5.76A391.71,391.71,0,0,0,284.65,230L279,231.79c-1.87.6-3.71,1.32-5.56,2-3.69,1.38-7.44,2.62-11.07,4.12s-7.33,2.87-11,4.38L240.62,247a451.21,451.21,0,0,0-42,22,465.27,465.27,0,0,0-40.18,26.74c-13.14,9.54-25.9,20.15-38.46,31.27s-24.78,23.21-36.8,35.78Q73.87,372.66,64.83,383q5.6.92,11.17,2,12.57,2.36,24.93,5.54c10.11-10.68,20.37-21,30.91-30.57,11.95-10.88,24.09-21.27,36.62-30.66a450.18,450.18,0,0,1,38.32-26.38A431.52,431.52,0,0,1,247,281.06l10.35-4.75c3.48-1.51,7-2.92,10.49-4.38s7.08-2.73,10.62-4.11c1.78-.66,3.53-1.38,5.33-2l5.4-1.79a364.27,364.27,0,0,1,44.07-11.75,339.47,339.47,0,0,1,45.47-5.78c7.65-.36,15.32-.72,23-.75q11.51.31,23,.92a345.84,345.84,0,0,1,45.64,6.38c30.16,6.13,59.27,16.57,87.11,30.14,3.46,1.75,6.95,3.42,10.39,5.23L578.13,294c6.77,3.93,13.54,7.86,20.18,12.13a459.66,459.66,0,0,1,39.14,27.74,561.68,561.68,0,0,1,61.72,56.76c9.47-2.44,19-4.6,28.7-6.38l7.33-1.2q-5-5.73-10.06-11.3c-24.75-27.06-50.51-50.93-77.35-71.32a469.83,469.83,0,0,0-41-28.13c-7-4.32-14-8.29-21.13-12.24l-10.75-5.59c-3.6-1.83-7.25-3.51-10.86-5.26-29.1-13.63-59.45-24-90.83-30.16A374.15,374.15,0,0,0,425.7,212.68Zm1.57-34q2.61-3.27,5.25-6.47,5.6-6.75,11.28-13.27a140.28,140.28,0,0,0-87.62,0q8.35,9.65,16.53,19.77l4.3-.2c8.25-.31,16.54-.74,24.82-.76q12.42.36,24.85.93Zm64.5-69.84a196.62,196.62,0,0,0-41.18-17.59c-43-12.92-89.58-8.65-129.86,11.11-4.22,2-8.38,4.22-12.49,6.51q12.27,11.49,24.23,24a159.38,159.38,0,0,1,115.3-7.57,164,164,0,0,1,19.75,7.59c.63-.67,1.26-1.35,1.89-2C476.79,123.34,484.23,116,491.77,108.87Z" style="fill:#4ebbb5"/><path d="M382.09,782.56a240.85,240.85,0,0,0-38.15,5.85A262.93,262.93,0,0,0,307.84,800H492.29a245.4,245.4,0,0,0-33.23-10.81A238.82,238.82,0,0,0,382.09,782.56Z" style="fill:#4ebbb5"/><path d="M563.14,761.89l-9.33-5.48c-3.12-1.8-6.3-3.45-9.45-5.18-25.33-13.44-52-23.93-79.65-30.1a293.87,293.87,0,0,0-126.13-.77,310,310,0,0,0-40.4,11.79l-4.94,1.79c-1.64.6-3.25,1.32-4.88,2-3.22,1.37-6.51,2.6-9.69,4.1s-6.4,2.86-9.58,4.36l-9.43,4.72a395.05,395.05,0,0,0-36.49,21.57,430,430,0,0,0-34.6,25.67c-1.48,1.2-2.94,2.44-4.4,3.66h53.92q13.66-9.07,27.92-16.88l9-4.7c3-1.5,6.08-2.9,9.12-4.36s6.16-2.72,9.23-4.09,6.21-2.59,9.36-3.77a284.75,284.75,0,0,1,38.57-11.81,268.21,268.21,0,0,1,120.62.77c26.47,6.19,51.86,16.7,75.94,30.07,3,1.73,6,3.38,9,5.16l8.85,5.45c2.11,1.38,4.21,2.76,6.31,4.16h53.91a431.69,431.69,0,0,0-34.44-26.21C575.43,769.6,569.28,765.74,563.14,761.89Z" style="fill:#4ebbb5"/></pattern></defs><title>Element 2</title><rect width="2560" height="1440" style="fill:url(#a)"/></svg>