<?xml version="1.0" encoding="UTF-8"?> <svg xmlns="http://www.w3.org/2000/svg" xmlns:xlink="http://www.w3.org/1999/xlink" id="Ebene_1" x="0px" y="0px" viewBox="0 0 61 108" style="enable-background:new 0 0 61 108;" xml:space="preserve"> <style type="text/css"> .st0{fill:#EB5A5C;} .st1{fill:#4EBBB5;} .st2{fill:#FFB900;} </style> <path class="st0" d="M25.1,4c-0.6,1.1-1.3,2.3-2,3.7C22.3,6.2,21.6,5,21,4c-0.2-0.3-0.6-0.4-0.9-0.4S19.4,3.7,19.2,4 C14.5,11.8,3.5,32.8,3.5,57.3c0,19.1,2.9,36.6,7.8,47.2h6.1c0.4,0.9,0.8,1.8,1.2,2.6l0.5,1h-10l-0.5-1C3.2,96.1,0,77.5,0,57.3 C0,32,11.3,10.3,16.2,2.1C17,0.8,18.5,0,20.1,0c1.7,0,3.1,0.8,3.9,2.1C24.4,2.7,24.7,3.3,25.1,4z"></path> <path class="st1" d="M44.6,2.1C43.8,0.8,42.3,0,40.6,0c-1.7,0-3.1,0.8-3.9,2.1c-0.4,0.7-0.8,1.4-1.3,2.3c-0.6,1.1-1.3,2.3-2,3.7 c-1,1.9-2,3.9-3,6.2c-0.7,1.4-1.3,2.9-1.9,4.5c-4,10-7.8,23-7.9,37.3c0,0.4,0,0.8,0,1.2c0,7.9,0.5,15.5,1.4,22.5 c1.3,9.7,3.4,18.2,6.1,24.7c0.4,0.9,0.8,1.8,1.2,2.6l0.5,1h21.9l0.5-1c5.4-11,8.7-29.6,8.7-49.7C60.8,32,49.4,10.3,44.6,2.1z M49.4,104.5h-7V56.1h-3.6v48.4h-7c-0.5-1.1-1-2.4-1.5-3.6c-0.7-2-1.4-4.1-2-6.4C25.6,84.3,24,71.2,24,57.3 c0-12.5,2.9-24.2,6.3-33.6c0.6-1.7,1.3-3.3,1.9-4.9c1-2.5,2.1-4.8,3.1-6.8c0.7-1.4,1.4-2.7,2-3.9c0.9-1.6,1.7-3,2.4-4.2 c0.2-0.3,0.6-0.4,0.9-0.4s0.7,0.1,0.9,0.4c4.7,7.9,15.7,28.9,15.7,53.3C57.2,76.3,54.3,93.8,49.4,104.5z"></path> <path class="st2" d="M35.4,4.4c-0.6,1.1-1.3,2.3-2,3.7c-0.9-1.6-1.7-3-2.4-4.1c-0.2-0.3-0.6-0.4-0.9-0.4S29.4,3.7,29.2,4 c-0.6,1-1.3,2.3-2.1,3.7c-0.6,1.2-1.3,2.5-2,3.9c-5.1,10.3-11.6,27-11.6,45.8c0,14.7,1.7,28.5,4.8,38.9c0.9,3.1,1.9,5.8,3,8.2H28 c0.4,0.9,0.8,1.8,1.2,2.6l0.5,1H19.2l-0.5-1c-0.4-0.8-0.8-1.7-1.2-2.6C12.8,93.3,10,76,10,57.3C10,36.4,17.7,18,23.1,7.7 c0.7-1.4,1.4-2.6,2-3.7c0.4-0.7,0.7-1.3,1.1-1.8C27,0.8,28.5,0,30.1,0c1.7,0,3.1,0.8,3.9,2.1C34.5,2.8,34.9,3.6,35.4,4.4z"></path> </svg> 