<svg xmlns="http://www.w3.org/2000/svg" xmlns:xlink="http://www.w3.org/1999/xlink" width="903.11mm" height="508mm" viewBox="0 0 2560 1440"><defs><pattern id="a" width="1485" height="800" patternUnits="userSpaceOnUse" viewBox="0 0 1485 800"><rect width="1485" height="800" style="fill:none"/><rect width="1485" height="800" style="fill:#fdc653"/><path d="M102.62,335a348.29,348.29,0,0,0,41.72,9.36h0q5.29.85,10.63,1.55a392.45,392.45,0,0,1,19.34-78.57,385,385,0,0,1,20.13-46.17q-6.06-.15-12.05-.62a220.59,220.59,0,0,1-44.19-8.05,219.59,219.59,0,0,1-39.95-16,223.83,223.83,0,0,1-62.19-47.87A223.56,223.56,0,0,1,0,94.62V285.71H0a348.37,348.37,0,0,0,39.5,24A348.09,348.09,0,0,0,102.62,335Z" style="fill:#fbb810"/><path d="M548.64,8.78c.08-2.93.11-5.86.11-8.78H421.19a223.28,223.28,0,0,1-1.82,28.52A391.91,391.91,0,0,1,548.64,8.78Z" style="fill:#fbb810"/><path d="M24.88,36a178.51,178.51,0,0,0,13,39.31A180.8,180.8,0,0,0,67.56,120a181.38,181.38,0,0,0,50.27,38.69,177.53,177.53,0,0,0,67.91,19.4,180.53,180.53,0,0,0,34.9-.64A390.42,390.42,0,0,1,372.29,47.6,181.31,181.31,0,0,0,378.68,0H251.1a53,53,0,0,1-.42,6.84,51.47,51.47,0,0,1-2.5,10.52,53,53,0,0,1-12,18.83,53,53,0,0,1-18.83,12,51.47,51.47,0,0,1-10.52,2.5,53.89,53.89,0,0,1-11.07.27,49.79,49.79,0,0,1-19.19-5.46,53.7,53.7,0,0,1-14.53-11.16,53.41,53.41,0,0,1-8.51-12.85,50.92,50.92,0,0,1-3.68-11,75.92,75.92,0,0,1-1-7.62A20,20,0,0,0,148.82,0H21.26s.09,3.3.25,9.47A197.93,197.93,0,0,0,24.88,36Z" style="fill:#fbb810"/><path d="M891.05,787.9a389.44,389.44,0,0,1-128.64-40.48c-1.93-1-3.83-2-5.74-3.06.16.63.33,1.26.48,1.89l1.35,5.83c.44,1.9.87,3.75,1.17,5.59s.64,3.6,1,5.34.64,3.41.81,5c.42,3.28.81,6.36,1.17,9.2s.43,5.47.61,7.84c.09,1.18.17,2.3.25,3.36s.06,2,.09,3q.06,2.77.12,4.68c.06,2.54.09,3.9.09,3.9H891.32s0-2.13-.11-6.11C891.16,792.22,891.11,790.2,891.05,787.9Z" style="fill:#fbb810"/><path d="M721.06,793.05c0-.75,0-1.55-.06-2.41s-.14-1.76-.22-2.71q-.21-2.88-.48-6.35c-.29-2.29-.61-4.78-.95-7.43-.13-1.33-.41-2.68-.65-4.08s-.51-2.83-.77-4.31-.59-3-.95-4.51-.72-3.1-1.08-4.7a180.75,180.75,0,0,0-16.24-41.77c-3-5.4-6.32-10.82-10-16.13a397.85,397.85,0,0,1-37.12-35.8q-4.53-5-8.79-10.1c-5.29-3.61-10.69-6.9-16.07-9.91A180.75,180.75,0,0,0,586,626.6l-4.7-1.08c-1.53-.36-3-.72-4.51-.95l-4.31-.77c-1.4-.24-2.75-.52-4.08-.65l-7.43-.95-6.35-.48-2.71-.22-2.41-.06-1.27,0A389.46,389.46,0,0,1,590.06,769q.56,7.17.86,14.4c.14.43.29.85.46,1.26s.23,1,.37,1.42l.21.67.12.34.06.34c.08.46.17.9.28,1.33a5.71,5.71,0,0,1,.28,1.26c.06.43.13.83.21,1.23a6.55,6.55,0,0,1,.2,1.16,18.11,18.11,0,0,0,.29,2.12c0,.68.05,1.3.11,1.86,0,.28.06.54.09.79s0,.5,0,.72c0,.45,0,.83,0,1.14,0,.61.07.94.07.94H721.24s0-1.1-.09-3.16C721.13,795.81,721.1,794.54,721.06,793.05Z" style="fill:#fbb810"/><path d="M497.29,54.16A348.54,348.54,0,0,0,193.8,406l.08.09A10.92,10.92,0,0,1,195,407a6.58,6.58,0,0,1,1.05.69.4.4,0,0,1,.27.08s0,.09.1.09a.27.27,0,0,1,.13,0c.09,0,.14.11.22.13a.31.31,0,0,1,.23.06s.05.08.09.08h.12a.31.31,0,0,1,.19.12.37.37,0,0,1,.21,0,.2.2,0,0,1,.09.06l0,0,.06,0a.33.33,0,0,1,.2,0c.06,0,.11.09.19,0a.31.31,0,0,1,.19,0c.06,0,.11.1.19,0a.46.46,0,0,1,.36.07.64.64,0,0,1,.36,0l.15.06a.94.94,0,0,0,.16,0,1,1,0,0,1,.24,0,.64.64,0,0,1,.21.06l5.25.09c3.46.07,8.59.17,15.29.45a410,410,0,0,1,58,7.38,382.26,382.26,0,0,1,44.61,11.95c-.46-3.62-.85-7.26-1.13-10.92a223.59,223.59,0,0,1,1.16-46.37q.75-5.85,1.83-11.68A220.64,220.64,0,0,1,334.32,325,221.62,221.62,0,0,1,467.47,191.82a220.64,220.64,0,0,1,34.59-9.33q5.83-1.08,11.68-1.83,8.78-1.14,17.51-1.57a223.71,223.71,0,0,1,28.86.41,221.34,221.34,0,0,1,38,6.35A393.64,393.64,0,0,1,562.84,95q-1.26-5.28-2.41-10.34c-.77-3.37-1.5-6.67-2.07-9.91l-1.7-9.46c-.53-3.07-1.06-6-1.42-9-.22-1.64-.43-3.25-.64-4.84A351.44,351.44,0,0,0,497.29,54.16Z" style="fill:#fbb810"/><path d="M1234.31,412a392.65,392.65,0,0,1,56.83-3.22c.13-4.95.14-9.89.06-14.81l-.08-.09a10.92,10.92,0,0,1-1.07-.92,6.58,6.58,0,0,1-1-.69.4.4,0,0,1-.27-.08s0-.09-.1-.09a.27.27,0,0,1-.13,0c-.09,0-.14-.11-.22-.13a.31.31,0,0,1-.23-.06s0-.08-.09-.08h-.12a.31.31,0,0,1-.19-.12.37.37,0,0,1-.21,0,.2.2,0,0,1-.09-.06l0,0-.06,0a.33.33,0,0,1-.2,0c-.06,0-.11-.09-.19,0a.31.31,0,0,1-.19,0c-.06,0-.11-.1-.19,0a.46.46,0,0,1-.36-.07.64.64,0,0,1-.36,0l-.15-.06a.66.66,0,0,0-.15,0,1,1,0,0,1-.25,0,.64.64,0,0,1-.21-.06l-5.25-.09c-3.46-.07-8.59-.17-15.29-.45a410,410,0,0,1-58-7.38,382.26,382.26,0,0,1-44.61-11.95c.46,3.62.85,7.26,1.13,10.92a224.48,224.48,0,0,1-1.13,46.13A391.94,391.94,0,0,1,1234.31,412Z" style="fill:#fbb810"/><path d="M924.89,620.5a219.66,219.66,0,0,1-84.14-24,221.17,221.17,0,0,1-98.91-103.23,220.85,220.85,0,0,1-16.12-48.75,239.92,239.92,0,0,1-4.17-32.79c-.2-7.62-.31-11.69-.31-11.69s-.09-3.3-.25-9.47A197.93,197.93,0,0,0,717.62,364a178.51,178.51,0,0,0-13-39.31,174.09,174.09,0,0,0-15-26.13c-8.2-6.95-16.18-14.25-23.85-21.86S650.89,261.09,644,252.9A178.59,178.59,0,0,0,364.38,414.26a177.09,177.09,0,0,0,5.87,33.37A390.21,390.21,0,0,1,508.51,559.32q6.87,8.79,13.35,18.19c4.38.49,8.13.75,11.17,1l9.47.25,3.9.09,4.68.12,3,.09,3.36.25,7.84.61,9.2,1.17c1.64.17,3.32.5,5,.81l5.34,1c1.84.3,3.69.73,5.59,1.17l5.83,1.35,1.85.47c-3.79-7-7.29-14-10.46-20.84a391.06,391.06,0,0,1-28.56-86.46c-2-9.85-3.44-18.89-4.5-27.07l-6-.16-6.11-.11a20,20,0,0,0-2.83-.08,75.92,75.92,0,0,1-7.62-1,50.92,50.92,0,0,1-11-3.68,51.1,51.1,0,0,1-24-23,49.62,49.62,0,0,1-5.46-19.19,53.89,53.89,0,0,1,.27-11.07,50.83,50.83,0,0,1,2.5-10.52,51.52,51.52,0,0,1,30.82-30.82,50.83,50.83,0,0,1,10.52-2.5,53.89,53.89,0,0,1,11.07-.27,49.62,49.62,0,0,1,19.19,5.46,51.1,51.1,0,0,1,23,24,50.92,50.92,0,0,1,3.68,11,75.92,75.92,0,0,1,1,7.62,20,20,0,0,0,.08,2.83s0,1.59.08,4.68c0,1.91.1,4.39.19,7.42q.07,2.81.22,6.23c.6,9.24,1.51,21.87,4,37.32h0c.73,4.55,1.58,9.33,2.6,14.36a348.75,348.75,0,0,0,72.17,151.26h0c3.58,4.36,7.28,8.7,11.16,13a355.67,355.67,0,0,0,37.13,35.28h0q3.34,2.75,6.78,5.44a347.11,347.11,0,0,0,158.86,69.31h0q5.29.86,10.63,1.55a392.45,392.45,0,0,1,19.34-78.57,385,385,0,0,1,20.13-46.17Q930.88,621,924.89,620.5Z" style="fill:#fbb810"/><path d="M594,12.1c0,.44,0,.88,0,1.35,0,1.44.1,3,.16,4.65s.24,3.42.36,5.28c.28,3.73.59,7.85,1,12.33s1.13,9.33,1.82,14.5c.22,1.79.52,3.62.84,5.48h0c.14.82.29,1.66.43,2.5q.74,4.1,1.52,8.43c.49,2.89,1.15,5.82,1.84,8.83s1.41,6.07,2.14,9.21a351.65,351.65,0,0,0,31.82,81.78,370.81,370.81,0,0,0,26.64,41.66c3.38,4.51,6.9,9,10.51,13.34h0c7.18,8.71,14.79,17.15,22.79,25.21s16.53,15.63,25.25,22.82h0c4.37,3.6,8.81,7.11,13.3,10.48a370.81,370.81,0,0,0,41.66,26.64,351.65,351.65,0,0,0,81.78,31.82l9.21,2.14c3,.69,5.94,1.35,8.83,1.84l8.43,1.52,2.55.44h0c1.84.31,3.65.61,5.43.83q7.76,1,14.5,1.82c4.48.4,8.6.71,12.33,1l5.28.36,4.65.16,1.37,0,6,.16,6.11.11h0a20,20,0,0,0,2.83.08,75.92,75.92,0,0,1,7.62,1,50.92,50.92,0,0,1,11,3.68,51.21,51.21,0,0,1,24,23,49.79,49.79,0,0,1,5.46,19.19,53.89,53.89,0,0,1-.27,11.07,51.47,51.47,0,0,1-2.5,10.52,51.52,51.52,0,0,1-30.82,30.82,51.47,51.47,0,0,1-10.52,2.5,53.89,53.89,0,0,1-11.07.27,49.79,49.79,0,0,1-19.19-5.46,51.21,51.21,0,0,1-23-24,50.92,50.92,0,0,1-3.68-11,75.92,75.92,0,0,1-1-7.62,20,20,0,0,0-.08-2.83s0-1.59-.08-4.68c0-1.91-.09-4.39-.18-7.42-1.6-.2-3.21-.42-4.86-.64-2.9-.36-5.88-.89-9-1.42l-9.46-1.7c-3.24-.57-6.54-1.3-9.91-2.07s-6.82-1.57-10.34-2.41a393.58,393.58,0,0,1-90.82-35.2c1,3.84,1.85,7.54,2.56,11.06a239.92,239.92,0,0,1,4.17,32.79c.2,7.62.31,11.69.31,11.69s.09,3.3.25,9.47A197.74,197.74,0,0,0,767.38,436a178.51,178.51,0,0,0,13,39.31,178.67,178.67,0,0,0,79.94,83.43,177.53,177.53,0,0,0,67.91,19.4,180.53,180.53,0,0,0,34.9-.64A390.42,390.42,0,0,1,1114.79,447.6a181.16,181.16,0,0,0,5.83-61.86,177.09,177.09,0,0,0-5.87-33.37,394.68,394.68,0,0,1-92.6-62.45,395.49,395.49,0,0,1-45.66-49.24q-6.87-8.79-13.35-18.19c-4.38-.49-8.13-.75-11.17-1l-9.47-.25h0l-3.9-.09-4.68-.12-3-.09-3.36-.25-7.84-.61-9.2-1.17c-1.64-.17-3.32-.5-5-.81l-5.34-1c-1.84-.3-3.69-.73-5.59-1.17l-5.83-1.35A223.83,223.83,0,0,1,837,194.52a244.82,244.82,0,0,1-26.42-16.91,242.16,242.16,0,0,1-24.5-21.16A242.16,242.16,0,0,1,764.89,132,244.82,244.82,0,0,1,748,105.53a223.83,223.83,0,0,1-20.13-51.78l-1.35-5.83c-.44-1.9-.87-3.75-1.17-5.59s-.64-3.6-1-5.34-.64-3.41-.81-5.05c-.42-3.28-.81-6.36-1.17-9.2s-.43-5.47-.61-7.84c-.09-1.18-.17-2.3-.25-3.36s-.06-2-.09-3q-.06-2.77-.12-4.68c-.06-2.54-.09-3.9-.09-3.9H593.68s0,2.13.11,6.11C593.84,7.78,593.89,9.8,594,12.1Z" style="fill:#fbb810"/><path d="M763.94,7c0,.75,0,1.55.06,2.41s.14,1.76.22,2.71q.21,2.88.48,6.35c.29,2.29.61,4.78.95,7.43.13,1.33.41,2.68.65,4.08s.51,2.83.77,4.31.59,3,.95,4.51.72,3.1,1.08,4.7a180.75,180.75,0,0,0,16.24,41.77A201.81,201.81,0,0,0,799,106.57a202.3,202.3,0,0,0,17.11,19.82,202.3,202.3,0,0,0,19.82,17.11,201.81,201.81,0,0,0,21.35,13.66,180.75,180.75,0,0,0,41.77,16.24l4.7,1.08c1.53.36,3,.72,4.51,1l4.31.77c1.4.24,2.75.52,4.08.65l7.43,1,6.35.48,2.71.22,2.41.06,1.27,0a389.83,389.83,0,0,1-27.6-69.35A391.11,391.11,0,0,1,894.94,31q-.56-7.17-.86-14.4c-.14-.43-.29-.85-.46-1.26s-.23-1-.37-1.42l-.21-.67-.12-.34-.06-.34c-.08-.46-.17-.9-.28-1.33A5.71,5.71,0,0,1,892.3,10c-.06-.43-.13-.83-.21-1.23a6.55,6.55,0,0,1-.2-1.16,18.11,18.11,0,0,0-.29-2.12c0-.68-.05-1.3-.11-1.86,0-.28-.06-.54-.09-.79s0-.5,0-.72c0-.45,0-.83,0-1.14,0-.61-.07-.94-.07-.94H763.76s0,1.1.09,3.16C763.87,4.19,763.9,5.46,763.94,7Z" style="fill:#fbb810"/><path d="M1126.28,82.17A181.38,181.38,0,0,0,1165,132.44a180.8,180.8,0,0,0,44.74,29.67,178.51,178.51,0,0,0,39.31,13,197.93,197.93,0,0,0,26.51,3.37l9.47.25,3.9.09,4.68.12,3,.09,3.36.25,7.84.61,9.2,1.17c1.64.17,3.32.5,5,.81l5.34,1c1.84.3,3.69.73,5.59,1.17l5.83,1.35,1.85.47c-3.79-7-7.29-14-10.46-20.84a391.06,391.06,0,0,1-28.56-86.46c-2-9.85-3.44-18.89-4.5-27.07l-6-.16-6.11-.11a20,20,0,0,0-2.83-.08,75.92,75.92,0,0,1-7.62-1,50.92,50.92,0,0,1-11-3.68A53.35,53.35,0,0,1,1250.66,38a53.67,53.67,0,0,1-11.15-14.53,49.62,49.62,0,0,1-5.46-19.19c-.11-1.38-.15-2.8-.15-4.23H1106.32q0,7.19.56,14.26A177.53,177.53,0,0,0,1126.28,82.17Z" style="fill:#fbb810"/><path d="M1484.34,93.23a220.85,220.85,0,0,1-16.12-48.75,239.92,239.92,0,0,1-4.17-32.79c-.2-7.62-.31-11.69-.31-11.69H1336.18s0,1.59.08,4.68c0,1.91.1,4.39.19,7.42q.08,2.81.22,6.23c.6,9.24,1.51,21.87,4,37.32h0c.73,4.55,1.58,9.33,2.6,14.36a348.45,348.45,0,0,0,25.45,77,348.85,348.85,0,0,0,46.72,74.23h0c3.58,4.36,7.28,8.7,11.16,13a355.67,355.67,0,0,0,37.13,35.28h0q3.35,2.74,6.78,5.44c4.69,3.66,9.55,7.23,14.52,10.72h0V94.62C1484.78,94.16,1484.55,93.69,1484.34,93.23Z" style="fill:#fbb810"/><path d="M148.56,787.9c-1.6-.2-3.21-.42-4.86-.64-2.9-.36-5.88-.89-8.95-1.42l-9.46-1.7c-3.24-.57-6.54-1.3-9.91-2.07s-6.82-1.57-10.34-2.41a393.58,393.58,0,0,1-90.82-35.2c1,3.84,1.85,7.54,2.56,11.06A239.92,239.92,0,0,1,21,788.31c.2,7.62.31,11.69.31,11.69H148.82s0-1.59-.08-4.68C148.7,793.41,148.65,790.93,148.56,787.9Z" style="fill:#fbb810"/><path d="M547.67,772.36q-.93-11.82-2.66-23.46h0q-1.1-7.47-2.51-14.83c-2-10.68-4.57-21.19-7.55-31.45a348.09,348.09,0,0,0-25.27-63.12c-4.11-7.94-8.5-15.61-13.09-23h0a349.62,349.62,0,0,0-21.58-31,354.52,354.52,0,0,0-37.37-40.8h0c-1.11-1-2.23-2.09-3.35-3.12q-9.15-8.25-18.5-15.57h0A348.15,348.15,0,0,0,347,483.69c-3.81-1.77-7.59-3.43-11.32-5h0A346.08,346.08,0,0,0,270,458.24a365.5,365.5,0,0,0-51.68-6.57c-6-.25-10.56-.34-13.65-.41l-4.68-.08h0s-.33,0-.94-.07l-1.14,0h-.72l-.79-.09c-.56-.06-1.18-.09-1.86-.11a18.11,18.11,0,0,0-2.12-.29,6.55,6.55,0,0,1-1.16-.2c-.4-.08-.8-.15-1.23-.21a5.71,5.71,0,0,1-1.26-.28c-.43-.11-.87-.2-1.33-.28l-.34-.06-.34-.12-.67-.21c-.46-.14-.94-.25-1.42-.37s-.93-.36-1.42-.52c-.25-.07-.49-.15-.75-.21s-.48-.22-.72-.31c-.49-.21-1-.4-1.51-.57s-1-.49-1.49-.7l-.78-.32a6.79,6.79,0,0,1-.75-.41c-.51-.27-1-.52-1.56-.76-2-1.2-4.1-2.46-6.13-3.92s-3.9-3.21-5.76-5-3.42-3.8-5-5.76-2.72-4.11-3.92-6.13c-.24-.53-.49-1.05-.76-1.56a6.79,6.79,0,0,1-.41-.75c-.1-.26-.21-.52-.32-.78-.21-.51-.49-1-.7-1.49s-.36-1-.57-1.51c-.09-.24-.23-.47-.31-.72s-.14-.5-.21-.75c-.16-.49-.33-1-.52-1.42s-.23-1-.37-1.42l-.21-.67-.12-.34-.06-.34c-.08-.46-.17-.9-.28-1.33a5.71,5.71,0,0,1-.28-1.26c-.06-.43-.13-.83-.21-1.23a6.55,6.55,0,0,1-.2-1.16,18.11,18.11,0,0,0-.29-2.12c0-.68,0-1.3-.11-1.86,0-.28-.06-.54-.09-.79s0-.5,0-.72c0-.45,0-.83,0-1.14,0-.61-.07-.94-.07-.94h0s0-2.13-.11-6.11c-.05-1.67-.1-3.69-.16-6a391.07,391.07,0,0,1-57.79-12.12,389.92,389.92,0,0,1-70.85-28.36c-1.93-1-3.83-2-5.74-3.06.16.63.33,1.26.48,1.89L16,352.08c.44,1.9.87,3.75,1.17,5.59s.64,3.6.95,5.34.64,3.41.81,5.05c.42,3.28.81,6.36,1.17,9.2s.43,5.47.61,7.84c.09,1.18.17,2.3.25,3.36s.06,2,.09,3q.06,2.77.12,4.68c.06,2.54.09,3.9.09,3.9h0s0,1.1.09,3.16c0,1,0,2.3.09,3.79,0,.75,0,1.55.06,2.41s.14,1.76.22,2.71q.21,2.88.48,6.35c.29,2.29.61,4.78.95,7.43.13,1.33.41,2.68.65,4.08s.51,2.83.77,4.31.59,3,.95,4.51.72,3.1,1.08,4.7a180.75,180.75,0,0,0,16.24,41.77,180.37,180.37,0,0,0,30.77,41.17A202.3,202.3,0,0,0,93.43,543.5a201.81,201.81,0,0,0,21.35,13.66,180.75,180.75,0,0,0,41.77,16.24l4.7,1.08c1.53.36,3,.72,4.51.95l4.31.77c1.4.24,2.75.52,4.08.65l7.43.95,6.35.48,2.71.22,2.41.06,3.79.09,3.16.09h0l11.69.31a239.92,239.92,0,0,1,32.79,4.17,220.85,220.85,0,0,1,48.75,16.12,221.17,221.17,0,0,1,103.23,98.91,219.66,219.66,0,0,1,24,84.14q.69,8.75.69,17.61H548.75q0-3,0-6Q548.51,783.11,547.67,772.36Z" style="fill:#fbb810"/><path d="M358.72,717.83a178.67,178.67,0,0,0-83.43-79.94,178.51,178.51,0,0,0-39.31-13,197.74,197.74,0,0,0-26.51-3.37l-9.47-.25h0l-3.9-.09-4.68-.12-3-.09-3.36-.25-7.84-.61-9.2-1.17c-1.64-.17-3.32-.5-5.05-.81l-5.34-1c-1.84-.3-3.69-.73-5.59-1.17l-5.83-1.35a223.83,223.83,0,0,1-51.78-20.13,244.82,244.82,0,0,1-26.42-16.91A221.87,221.87,0,0,1,22.39,532,244.82,244.82,0,0,1,5.48,505.53Q2.55,500.06,0,494.6V685.75H0a375.87,375.87,0,0,0,33.56,20.84,351.65,351.65,0,0,0,81.78,31.82l9.21,2.14c3,.69,5.94,1.35,8.83,1.84l8.43,1.52,2.55.44h0c1.84.31,3.65.61,5.43.83q7.76,1,14.5,1.82c4.48.4,8.6.71,12.33,1l5.28.36,4.65.16,1.37,0,6,.16,6.11.11h0a20,20,0,0,0,2.83.08,75.92,75.92,0,0,1,7.62,1,50.92,50.92,0,0,1,11,3.68,51.21,51.21,0,0,1,24,23A49.79,49.79,0,0,1,251,795.77c.11,1.38.15,2.8.15,4.23H378.68q0-7.18-.56-14.26A177.53,177.53,0,0,0,358.72,717.83Z" style="fill:#fbb810"/><path d="M1460.12,764a178.51,178.51,0,0,0-13-39.31,174.09,174.09,0,0,0-15-26.13c-8.2-7-16.18-14.25-23.85-21.86s-14.89-15.63-21.83-23.82A178.54,178.54,0,0,0,1106.32,800H1233.9a53,53,0,0,1,.42-6.84,50.83,50.83,0,0,1,2.5-10.52,51.52,51.52,0,0,1,30.82-30.82,50.83,50.83,0,0,1,10.52-2.5,53.89,53.89,0,0,1,11.07-.27,49.62,49.62,0,0,1,19.19,5.46,51.1,51.1,0,0,1,23,24,50.92,50.92,0,0,1,3.68,11,75.92,75.92,0,0,1,1,7.62,20,20,0,0,0,.08,2.83h127.56s-.09-3.3-.25-9.47A197.93,197.93,0,0,0,1460.12,764Z" style="fill:#fbb810"/><path d="M1210,591.82a220.64,220.64,0,0,1,34.59-9.33q5.84-1.08,11.68-1.83,8.77-1.14,17.51-1.57a223.71,223.71,0,0,1,28.86.41,221.34,221.34,0,0,1,38,6.35A393.64,393.64,0,0,1,1305.34,495q-1.26-5.28-2.41-10.34c-.77-3.37-1.5-6.67-2.07-9.91l-1.7-9.46c-.53-3.07-1.06-6.05-1.42-8.95-.22-1.64-.43-3.25-.64-4.84A348.49,348.49,0,0,0,936.25,800h127.56q0-2.71.06-5.43a224.2,224.2,0,0,1,1.79-23.33q.75-5.85,1.83-11.68a220.64,220.64,0,0,1,9.33-34.59A221.62,221.62,0,0,1,1210,591.82Z" style="fill:#fbb810"/><path d="M1469,447.92c-.44-1.9-.87-3.75-1.17-5.59s-.64-3.6-.95-5.34-.64-3.41-.81-5.05c-.42-3.28-.81-6.36-1.17-9.2s-.43-5.47-.61-7.84c-.09-1.18-.17-2.3-.25-3.36s-.06-2-.09-3q-.06-2.77-.12-4.68c-.06-2.54-.09-3.9-.09-3.9h0s0-1.1-.09-3.16c0-1-.05-2.3-.09-3.79,0-.75,0-1.55-.06-2.41s-.14-1.76-.22-2.71q-.21-2.88-.48-6.35c-.29-2.29-.61-4.78-1-7.43-.13-1.33-.41-2.68-.65-4.08s-.51-2.83-.77-4.31-.59-3-1-4.51-.72-3.1-1.08-4.7a180.75,180.75,0,0,0-16.24-41.77c-3-5.4-6.32-10.82-10-16.13a397.85,397.85,0,0,1-37.12-35.8q-4.53-5-8.79-10.1c-5.29-3.61-10.69-6.9-16.07-9.91a180.75,180.75,0,0,0-41.77-16.24l-4.7-1.08c-1.53-.36-3-.72-4.51-1l-4.31-.77c-1.4-.24-2.75-.52-4.08-.65l-7.43-1-6.35-.48-2.71-.22-2.41-.06-3.79-.09-3.16-.09-11.69-.31a239.92,239.92,0,0,1-32.79-4.17,220.85,220.85,0,0,1-48.75-16.12,223.52,223.52,0,0,1-55.36-36.72,223.83,223.83,0,0,1-47.87-62.19,219.59,219.59,0,0,1-16-39.95,220.59,220.59,0,0,1-8-44.19q-.69-8.75-.69-17.61H936.25q0,13.91,1.08,27.64a348.26,348.26,0,0,0,12.72,69.74,348.09,348.09,0,0,0,25.27,63.12,349.76,349.76,0,0,0,34.68,54,354.69,354.69,0,0,0,40.72,43.91A350.9,350.9,0,0,0,1138,316.31a347.93,347.93,0,0,0,77,25.45,367.32,367.32,0,0,0,51.68,6.58c6,.24,10.56.33,13.65.4l4.68.08s.33,0,.94.07l1.14,0h.72l.79.09c.56.06,1.18.09,1.86.11a18.11,18.11,0,0,0,2.12.29,6.55,6.55,0,0,1,1.16.2c.4.08.8.15,1.23.21a5.71,5.71,0,0,1,1.26.28c.43.11.87.2,1.33.28l.34.06.34.12.67.21c.46.14.94.25,1.42.37s.93.36,1.42.52l.75.21c.25.08.48.22.72.31.49.21,1,.4,1.51.57s1,.49,1.49.7l.78.32a6.79,6.79,0,0,1,.75.41c.51.27,1,.52,1.56.76,2,1.2,4.1,2.46,6.13,3.92s3.9,3.21,5.76,5,3.42,3.8,5,5.76,2.72,4.11,3.92,6.13c.24.53.49,1.05.76,1.56a6.79,6.79,0,0,1,.41.75c.1.26.21.52.32.78.21.51.49,1,.7,1.49s.36,1,.57,1.51c.09.24.23.47.31.72s.14.5.21.75c.16.49.33,1,.52,1.42s.23,1,.37,1.42l.21.67.12.34.06.34c.08.46.17.9.28,1.33a5.71,5.71,0,0,1,.28,1.26c.06.43.13.83.21,1.23a6.55,6.55,0,0,1,.2,1.16,18.11,18.11,0,0,0,.29,2.12c0,.68,0,1.3.11,1.86,0,.28.06.54.09.79s0,.5,0,.72c0,.45,0,.83,0,1.14,0,.61.07.94.07.94h0s0,2.13.11,6.11c0,1.67.1,3.69.16,6,0,.44,0,.88,0,1.35,0,1.44.1,3,.16,4.65s.24,3.42.36,5.28c.28,3.73.59,7.85,1,12.33s1.13,9.33,1.82,14.5c.22,1.79.52,3.62.84,5.48h0c.14.82.29,1.66.43,2.5q.73,4.1,1.52,8.43c.49,2.89,1.15,5.82,1.84,8.83s1.41,6.07,2.14,9.21a351.65,351.65,0,0,0,31.82,81.78,370.81,370.81,0,0,0,26.64,41.66c3.38,4.51,6.9,8.95,10.51,13.34h0c7.18,8.71,14.79,17.15,22.79,25.21s16.53,15.63,25.25,22.82h0c4.37,3.6,8.81,7.11,13.3,10.48,2.68,2,5.39,3.91,8.1,5.8h0V494.6a217.36,217.36,0,0,1-14.65-40.85Z" style="fill:#fbb810"/></pattern></defs><title>Element 3</title><rect width="2560" height="1440" style="fill:url(#a)"/></svg>